<?xml version="1.0" encoding="UTF-8"?>
<svg version="1.1" xmlns="http://www.w3.org/2000/svg" width="1024" height="1024">
<path d="M0 0 C-0.38597015 2.79828356 -0.80136573 3.8205884 -2.9375 5.75 C-5 7 -5 7 -7 7 C-7 7.99 -7 8.98 -7 10 C-6.38253906 9.7834375 -5.76507813 9.566875 -5.12890625 9.34375 C-4.28199219 9.0653125 -3.43507813 8.786875 -2.5625 8.5 C-1.73878906 8.2215625 -0.91507812 7.943125 -0.06640625 7.65625 C8.68316045 5.78373127 16.40186229 7.86819769 24.9375 10 C43.24619757 14.25723453 57.02571655 13.60732241 75.07568359 8.77050781 C80.48766793 7.34454166 85.93313944 6.05623758 91.375 4.75 C92.95293335 4.36303955 92.95293335 4.36303955 94.56274414 3.96826172 C109.21647591 0.41103668 126.59463747 -1.82446438 141 4 C143.31640625 5.60546875 143.31640625 5.60546875 145 7 C144 10 144 10 142 11 C140.55055622 11.13954943 139.0956996 11.22539985 137.640625 11.28125 C136.77179687 11.31863281 135.90296875 11.35601562 135.0078125 11.39453125 C133.64269531 11.44673828 133.64269531 11.44673828 132.25 11.5 C126.75759115 11.71368161 121.40785433 11.92559185 116 13 C116 13.66 116 14.32 116 15 C116.71824951 14.83991455 117.43649902 14.6798291 118.17651367 14.51489258 C132.25202985 11.94807341 147.54646973 13.37913656 161 18 C162.0621875 18.36222656 163.124375 18.72445313 164.21875 19.09765625 C178.26537207 24.4375448 190.99180585 33.59091384 198.22265625 46.95703125 C199 49 199 49 199 53 C197.24609375 53.6796875 197.24609375 53.6796875 195 54 C193.09765625 52.8828125 193.09765625 52.8828125 191.0625 51.125 C178.22461409 40.40219547 178.22461409 40.40219547 163 34 C161.515 34.495 161.515 34.495 160 35 C160.75023437 35.3403125 161.50046875 35.680625 162.2734375 36.03125 C169.71890062 39.55706125 175.8037995 43.59945928 182 49 C182.83402344 49.68964844 183.66804687 50.37929688 184.52734375 51.08984375 C201.54878018 65.5934714 211.55606891 85.94970038 214 108 C214.78265209 118.14253213 212.90922509 125.98580755 207.375 134.5 C205.94723251 137.09594089 205.43686829 139.08754477 205 142 C203.30051029 152.44205695 196.31582209 159.92260701 188 166 C183.17696606 168.79630226 178.29299437 171.23566854 173 173 C171.44197695 176.1160461 171.78769939 179.44332942 171.73461914 182.86767578 C171.71817856 183.68107422 171.70173798 184.49447266 171.68479919 185.33251953 C171.64948295 187.1047284 171.61631381 188.87698103 171.58500862 190.64926529 C171.53474541 193.46835501 171.47795218 196.28724383 171.41929626 199.10617065 C171.25357685 207.12382529 171.09897499 215.14167758 170.95043945 223.15966797 C170.85912614 228.064002 170.75951263 232.96811513 170.65517998 237.87218857 C170.61734718 239.72892999 170.58262738 241.5857379 170.5512867 243.44260025 C170.2141997 263.36475445 169.86728145 283.6061303 157 300 C156.48824219 300.68578125 155.97648438 301.3715625 155.44921875 302.078125 C147.06359483 312.56515825 134.95338666 317.96901885 121.79296875 319.59765625 C113.5163191 320.33966307 105.17631709 320.10441785 96.875 320.0625 C95.13802212 320.05747515 93.40104284 320.05291398 91.6640625 320.04882812 C87.44267312 320.03790014 83.22135236 320.02068978 79 320 C78.73823975 321.02685913 78.73823975 321.02685913 78.47119141 322.07446289 C76.8146228 328.38300201 74.83000556 334.39881047 72.375 340.4375 C71.75562268 341.97698537 71.13835592 343.51732194 70.5234375 345.05859375 C70.1200415 346.05330688 70.1200415 346.05330688 69.70849609 347.06811523 C68.99071058 349.02532983 68.46855926 350.97004755 68 353 C68.97646484 353.11021484 68.97646484 353.11021484 69.97265625 353.22265625 C74.18510869 354.30430533 77.66478266 356.30884026 81.4375 358.4375 C82.23373779 358.88488525 83.02997559 359.33227051 83.8503418 359.79321289 C113.34159191 376.65421293 133.54019509 400.59031107 152.27880859 428.45068359 C154.63771955 431.94454859 157.03155127 435.41342025 159.4375 438.875 C160.13746094 439.88304687 160.83742188 440.89109375 161.55859375 441.9296875 C162.03425781 442.61289062 162.50992188 443.29609375 163 444 C162.81300537 443.3702124 162.62601074 442.7404248 162.43334961 442.09155273 C161.58690857 439.21090141 160.76208982 436.32447856 159.9375 433.4375 C159.64294922 432.44685547 159.34839844 431.45621094 159.04492188 430.43554688 C157.17682617 423.82029031 156.24090388 419.03557346 159.0625 412.5625 C159.371875 412.046875 159.68125 411.53125 160 411 C164.91057776 413.182479 168.31624021 415.39044358 170.46630859 420.45166016 C170.87590964 421.80953143 171.2691772 423.17240635 171.6484375 424.5390625 C172.10094761 426.02102123 172.55409167 427.5027865 173.0078125 428.984375 C173.6980081 431.30996987 174.37864553 433.63772225 175.046875 435.96972656 C175.701729 438.23030543 176.39151192 440.47787894 177.0859375 442.7265625 C177.2747348 443.42552643 177.4635321 444.12449036 177.65805054 444.84463501 C178.29329233 447.08250047 178.29329233 447.08250047 180 450 C183.55223451 451.55345557 183.55223451 451.55345557 187 452 C186.87882813 451.33991943 186.75765625 450.67983887 186.6328125 449.99975586 C186.08219968 446.98012102 185.541031 443.9588657 185 440.9375 C184.71382812 439.37999023 184.71382812 439.37999023 184.421875 437.79101562 C182.88222624 429.13049136 182.06472558 423.0345186 186 415 C189.53654838 415.61245648 190.02029323 416.02263242 192.609375 418.91015625 C195.62393824 423.43546347 196.40683649 428.14137922 197.25 433.4375 C197.40984375 434.34048828 197.5696875 435.24347656 197.734375 436.17382812 C198.64828603 441.4326245 199.38001032 446.6990882 200 452 C202.97 452 205.94 452 209 452 C208.67 451.01 208.34 450.02 208 449 C207.87751381 446.36227423 207.81487616 443.76254205 207.8125 441.125 C207.80025391 440.41730469 207.78800781 439.70960938 207.77539062 438.98046875 C207.76389678 434.86567071 208.1653062 431.69839462 210 428 C210.99 428 211.98 428 213 428 C217.44948211 433.20914979 218.46426316 437.6927284 219.15234375 444.3125 C219.23673706 445.05306641 219.32113037 445.79363281 219.40808105 446.55664062 C219.6135674 448.37018558 219.80791465 450.18498674 220 452 C221.07483643 451.99476318 222.14967285 451.98952637 223.25708008 451.98413086 C227.24339974 451.96603599 231.22971576 451.95455154 235.21606445 451.94506836 C236.9416566 451.94003842 238.66724448 451.93321374 240.39282227 451.92456055 C242.8725693 451.91243639 245.35226 451.90675831 247.83203125 451.90234375 C248.60400345 451.89718246 249.37597565 451.89202118 250.17134094 451.88670349 C253.3830228 451.88636682 255.93020266 451.97673422 259 453 C259 453.66 259 454.32 259 455 C259.70608398 454.98952637 260.41216797 454.97905273 261.13964844 454.96826172 C264.34306266 454.9266521 267.54641996 454.90065796 270.75 454.875 C271.86117187 454.85824219 272.97234375 454.84148437 274.1171875 454.82421875 C275.18710937 454.81777344 276.25703125 454.81132813 277.359375 454.8046875 C278.34389648 454.79421387 279.32841797 454.78374023 280.34277344 454.77294922 C283 455 283 455 287 457 C287.33 489.01 287.66 521.02 288 554 C289.73056641 542.79869141 289.73056641 542.79869141 291.49609375 531.37109375 C293.1420962 520.72638706 294.78942324 510.0818857 296.4375 499.4375 C296.54680564 498.73150807 296.65611128 498.02551614 296.76872921 497.29813051 C302.55985535 459.89560872 308.38072162 422.49787882 314.26171875 385.109375 C314.39243601 384.2783005 314.52315328 383.447226 314.65783167 382.59096742 C317.30748596 365.74586717 319.96039723 348.90128064 322.61623657 332.05715448 C324.06143034 322.891104 325.5057678 313.72491884 326.94921875 304.55859375 C327.07751745 303.7439238 327.20581614 302.92925384 327.33800268 302.08989692 C330.99732058 278.8511069 334.61688365 255.60651428 338.19165707 232.35457063 C338.62336794 229.5474859 339.05564947 226.74048922 339.48798466 223.93350059 C340.01023934 220.5426907 340.53225337 217.15184377 341.05419922 213.76098633 C341.15509763 213.1055257 341.25599604 212.45006508 341.35995197 211.77474201 C342.6298117 203.52355483 343.89209034 195.27125231 345.14753056 187.01785946 C345.846319 182.43310313 346.55095554 177.84925965 347.25714684 173.26563835 C347.57939211 171.16487632 347.89896668 169.06370263 348.21567726 166.96209908 C348.64280631 164.12892083 349.07891929 161.29727055 349.51733398 158.46582031 C349.70019927 157.22905816 349.70019927 157.22905816 349.8867588 155.96731091 C350.45464244 152.35832501 350.9438135 150.08427975 353 147 C354.99267578 146.64355469 354.99267578 146.64355469 357.4453125 146.671875 C358.34967041 146.67606445 359.25402832 146.68025391 360.18579102 146.68457031 C361.15572998 146.70616211 362.12566895 146.72775391 363.125 146.75 C364.11749756 146.76385742 365.10999512 146.77771484 366.13256836 146.79199219 C369.08914085 146.84253596 372.0441433 146.9183324 375 147 C375.79003418 147.01546875 376.58006836 147.0309375 377.39404297 147.046875 C379.45179908 147.09143728 381.50611423 147.16373262 383.5625 147.25 C384.69816406 147.29640625 385.83382812 147.3428125 387.00390625 147.390625 C398.69872598 148.75869244 409.885786 154.28447156 420.60873413 158.84906006 C423.39866976 160.03668077 426.19169378 161.2167619 428.9855957 162.39501953 C431.95545048 163.6476126 434.92509118 164.90069053 437.89378357 166.15603638 C447.81476869 170.35095166 457.7565235 174.49538286 467.70162964 178.63272095 C471.71491929 180.30246044 475.72752586 181.97383824 479.74015808 183.64515686 C482.78226808 184.91220725 485.82447553 186.17902341 488.86669922 187.44580078 C495.05860821 190.02424932 501.25005246 192.6038124 507.44140625 195.18359375 C508.46496216 195.61001663 509.48851807 196.03643951 510.54309082 196.4757843 C515.61052559 198.58704019 520.67753548 200.69930419 525.74365234 202.8137207 C534.24087877 206.35904525 542.7396876 209.89961866 551.25741577 213.39546204 C554.65246455 214.7890822 558.04545796 216.187667 561.43835449 217.58651733 C563.0038739 218.23008354 564.57050412 218.87095512 566.13830566 219.50894165 C568.26815652 220.37567601 570.39415454 221.25127012 572.51953125 222.12890625 C573.70651611 222.61431885 574.89350098 223.09973145 576.11645508 223.59985352 C578.83799599 224.92133664 580.23014619 225.61031172 582 228 C582.15374947 230.57051945 582.15374947 230.57051945 581.82888794 233.68092346 C581.70934879 234.84906145 581.58980965 236.01719944 581.4666481 237.22073555 C580.64642878 243.86348349 579.72531616 250.48583163 578.73779297 257.10522461 C578.5051793 258.68726882 578.27296125 260.26937125 578.04110241 261.85152626 C577.41181829 266.13786935 576.77704413 270.423383 576.14124799 274.70876431 C575.46373408 279.28184928 574.79129377 283.85568044 574.11827087 288.4294281 C572.97016751 296.22726673 571.8189239 304.02463637 570.66567993 311.82171631 C569.02281686 322.93002733 567.38717086 334.03939266 565.75322115 345.14901781 C560.69827993 379.51571162 555.63213767 413.88061573 550.47196198 448.23168373 C549.39741418 455.39194987 548.32862735 462.55307867 547.25991058 469.71421719 C546.31189039 476.05975398 545.35216372 482.40337299 544.38307476 488.74572468 C543.8019096 492.56579574 543.23109283 496.38735839 542.66324043 500.20942879 C542.40706783 501.91840486 542.14649964 503.62672975 541.88084221 505.33425713 C541.52558281 507.6201575 541.18634703 509.90790835 540.85083008 512.19677734 C540.56542107 514.07736343 540.56542107 514.07736343 540.27424622 515.99594116 C539.37318387 524.90683199 541.39710091 533.98021746 543.00952148 542.70678711 C543.21127991 543.82053207 543.41303833 544.93427704 543.62091064 546.08177185 C544.28312898 549.73113227 544.95209711 553.37922042 545.62109375 557.02734375 C546.08614445 559.58354215 546.55074174 562.13982307 547.01490784 564.69618225 C548.11043622 570.72412595 549.21011155 576.75129873 550.31196982 582.77808815 C551.92397164 591.59634391 553.52897233 600.41587434 555.13376713 609.23544407 C556.28635415 615.56950015 557.44003261 621.90334961 558.59727478 628.23655701 C559.01854552 630.54564394 559.4398153 632.85473105 559.86108398 635.16381836 C560.0486879 636.18807922 560.23629181 637.21234009 560.42958069 638.26763916 C564.72712306 661.84698373 564.72712306 661.84698373 563 672 C561.64644661 680.29636243 561.64644661 680.29636243 562 694 C586.75 694 611.5 694 637 694 C637 695.65 637 697.3 637 699 C299.08 699 -38.84 699 -387 699 C-387 697.02 -387 695.04 -387 693 C-331.23 693 -275.46 693 -218 693 C-218.33 685.74 -218.66 678.48 -219 671 C-219.0691756 666.84916671 -219.12106883 662.71874807 -219.09765625 658.5703125 C-219.09553383 657.0521846 -219.09553383 657.0521846 -219.09336853 655.50338745 C-219.08792172 652.37722362 -219.07540385 649.25114089 -219.0625 646.125 C-219.05746503 643.96093856 -219.05290572 641.79687596 -219.04882812 639.6328125 C-219.03800346 634.42184537 -219.02085401 629.21093624 -219 624 C-215.74168167 627.25831833 -215.33776446 631.74630693 -214.1953125 636.12890625 C-213.80085937 637.07636719 -213.40640625 638.02382813 -213 639 C-210.97506314 639.7209262 -210.97506314 639.7209262 -209 640 C-208.26303016 655.01184052 -207.85909518 669.9701524 -208 685 C-208.99 684.67 -209.98 684.34 -211 684 C-211.33 682.35 -211.66 680.7 -212 679 C-212 683.29 -212 687.58 -212 692 C-188.95838375 692.17389583 -165.9167182 692.3401969 -142.875 692.5 C-141.5903932 692.50892281 -141.5903932 692.50892281 -140.27983475 692.51802588 C-92.01956187 692.85275848 -43.76156922 693.09761848 4.5 693.0625 C5.68524513 693.06164398 6.87049026 693.06078796 8.09165192 693.05990601 C22.06111889 693.04902289 36.03056071 693.02981167 50 693 C46.77310402 690.84873601 45.64105324 690.70076813 41.88720703 690.51342773 C40.83871078 690.45671402 39.79021454 690.40000031 38.70994568 690.34156799 C37.57074173 690.28943649 36.43153778 690.23730499 35.2578125 690.18359375 C34.07594864 690.1224791 32.89408478 690.06136444 31.67640686 689.99839783 C27.82634431 689.80199933 23.97578061 689.61923179 20.125 689.4375 C17.4717386 689.30660694 14.81849962 689.17525876 12.1652832 689.04345703 C-11.42106619 687.87547379 -11.42106619 687.87547379 -35.02246094 687.09716797 C-37.91921852 687.02640259 -40.81548427 686.94988569 -43.71191406 686.86767578 C-66.43773954 686.23169539 -89.15076748 685.95891585 -111.88459587 686.03261757 C-115.09278519 686.04296564 -118.30097559 686.05169678 -121.50917053 686.06010437 C-131.21120935 686.08702637 -140.91292605 686.12194831 -150.61475945 686.19203281 C-154.69895589 686.21870501 -158.78313743 686.23329676 -162.86740112 686.24512672 C-164.7937329 686.25352449 -166.72004937 686.26733068 -168.64630127 686.2867794 C-171.30723037 686.31315803 -173.96761882 686.32106546 -176.62866211 686.32470703 C-177.79777586 686.34323809 -177.79777586 686.34323809 -178.99050808 686.36214352 C-183.52743301 686.34534067 -186.38374419 685.78234676 -190 683 C-203.22317029 668.7354445 -207.31347335 642.36884088 -211 624 C-211.16661133 623.20996582 -211.33322266 622.41993164 -211.50488281 621.60595703 C-213.85347341 610.20581073 -214.30502121 598.85457082 -214.375 587.25 C-214.38294586 586.5624765 -214.39089172 585.874953 -214.39907837 585.16659546 C-214.58113681 564.68456224 -208.59488692 546.28440877 -202.53894424 526.93696976 C-201.64219877 524.06758929 -200.75183135 521.19624492 -199.86128712 518.32493496 C-193.93147538 499.21035414 -187.90939903 480.12441943 -181.8125 461.0625 C-181.4794989 460.01961823 -181.1464978 458.97673645 -180.80340576 457.9022522 C-177.06515493 446.21484329 -173.21958126 434.56542758 -169.25390625 422.953125 C-168.70401787 421.32414024 -168.70401787 421.32414024 -168.14302063 419.6622467 C-163.63748241 406.58734265 -156.35883619 396.81126317 -147.32421875 386.53027344 C-145.34025249 384.23759266 -143.45633946 381.86729932 -141.5625 379.5 C-112.35646504 343.71085162 -77.03937946 328.89122685 -32 323 C-31.82682755 322.39056549 -31.65365509 321.78113098 -31.47523499 321.15322876 C-29.67703284 314.8264082 -27.87607195 308.5003777 -26.07348633 302.17480469 C-25.40057302 299.81205184 -24.72837015 297.44909655 -24.05688477 295.0859375 C-23.0931647 291.69478085 -22.12691567 288.30435375 -21.16015625 284.9140625 C-20.85908463 283.85256989 -20.558013 282.79107727 -20.24781799 281.69741821 C-19.967603 280.71655243 -19.687388 279.73568665 -19.39868164 278.72509766 C-19.15219376 277.85905914 -18.90570587 276.99302063 -18.65174866 276.10073853 C-18 274 -18 274 -17 272 C-18.4540625 272.0928125 -18.4540625 272.0928125 -19.9375 272.1875 C-30.2860498 272.10421187 -37.27870451 266.37583484 -44.5625 259.625 C-45.366875 258.75875 -46.17125 257.8925 -47 257 C-47.59296875 256.40058594 -48.1859375 255.80117188 -48.796875 255.18359375 C-59.09007831 244.35179259 -67.1827303 228.70118659 -71.4375 214.375 C-73.31755509 210.314081 -74.97205229 209.47979516 -78.7578125 207.37890625 C-94.31680954 197.81039413 -100.62550563 179.514201 -104.8125 162.74609375 C-106.41641325 154.55945322 -106.18965669 146.30274828 -106 138 C-106.78375 138.061875 -107.5675 138.12375 -108.375 138.1875 C-109.24125 138.125625 -110.1075 138.06375 -111 138 C-114.86271027 132.2059346 -113.7947789 123.52883483 -112.61328125 116.79638672 C-108.77452986 99.69474929 -99.74702097 82.14673345 -85 72 C-78.12852665 68 -78.12852665 68 -75 68 C-75 67.34 -75 66.68 -75 66 C-76.15757812 66.3609375 -77.31515625 66.721875 -78.5078125 67.09375 C-80.04674218 67.56293588 -81.5858122 68.03166161 -83.125 68.5 C-83.88554687 68.73847656 -84.64609375 68.97695313 -85.4296875 69.22265625 C-89.74974618 70.52612223 -93.43306391 71.291817 -98 71 C-98 68.8125 -98 68.8125 -97 66 C-88.39394301 58.1248684 -74.89211439 55.80733022 -63.6875 55.9375 C-62.57665039 55.94426758 -62.57665039 55.94426758 -61.44335938 55.95117188 C-59.62887101 55.96287825 -57.81442466 55.98081102 -56 56 C-55.88785156 55.47535156 -55.77570313 54.95070313 -55.66015625 54.41015625 C-52.18752589 40.76930106 -44.49045085 28.25100963 -35 18 C-34.28070313 17.20078125 -33.56140625 16.4015625 -32.8203125 15.578125 C-24.48378343 6.73725075 -12.7684124 -2.92609451 0 0 Z M190 93 C190.68346256 97.06280524 191.92850171 100.70955456 193.375 104.5625 C197.75556146 116.64069548 202.6602533 131.1310142 199 144 C195.5929043 145.23894389 194.15303459 145.06180243 190.75 143.6875 C175.87857118 134.09302979 166.8100763 114.31764964 159 99 C157.71587785 101.56824429 158.19490019 102.38108935 158.9609375 105.10546875 C159.29738281 106.33426758 159.29738281 106.33426758 159.640625 107.58789062 C159.88296875 108.44576172 160.1253125 109.30363281 160.375 110.1875 C162.97707767 119.48778311 164.16540716 128.02345364 164.125 137.6875 C164.12886719 138.62400391 164.13273438 139.56050781 164.13671875 140.52539062 C164.13478516 141.87987305 164.13478516 141.87987305 164.1328125 143.26171875 C164.13168457 144.07600342 164.13055664 144.89028809 164.12939453 145.72924805 C164.00317156 147.94434203 163.6137668 149.87314871 163 152 C154.12828465 154.12149715 147.30518328 150.97398237 139.625 146.5 C132.68626815 142.05692053 126.8750465 136.74525903 121 131 C120.32066406 130.3709375 119.64132812 129.741875 118.94140625 129.09375 C110.27206537 120.90711184 104.7242711 110.31855622 99 100 C98.34 100 97.68 100 97 100 C96.12305669 116.68628251 101.28431499 127.3149054 111.625 139.9921875 C115.56497928 144.89370934 116.26397466 149.92504461 117 156 C104.61336329 156.96728616 95.39909396 151.95100833 85.06640625 145.8046875 C82.73839298 144.43457014 80.43557311 143.16093657 78 142 C78.28875 142.70125 78.5775 143.4025 78.875 144.125 C80.02133588 147.05452503 81.02625654 150.00921653 82 153 C75.89513892 151.62640626 72.44436802 148.12021066 68 144 C66.67212962 142.84784026 65.33918753 141.70148576 64 140.5625 C63.01 139.716875 62.02 138.87125 61 138 C64.48070033 145.28917961 70.10640322 150.82755985 77 155 C80.38336285 155.59349196 80.38336285 155.59349196 83 155 C84.04449911 151.86650268 83.93423645 151.01031744 83 148 C86.93846154 151.32307692 86.93846154 151.32307692 87.25 154.75 C87.1675 155.4925 87.085 156.235 87 157 C85.14375 157.0309375 85.14375 157.0309375 83.25 157.0625 C82.55390625 157.07410156 81.8578125 157.08570313 81.140625 157.09765625 C78.96707597 156.99849799 77.08693463 156.59693851 75 156 C74.92523438 157.01578125 74.85046875 158.0315625 74.7734375 159.078125 C73.91289118 168.69771981 72.52565758 178.89261929 65.0390625 185.8125 C62.04200343 187.55791371 59.39105245 187.19563764 56 187 C54.768606 183.30581799 55.35567236 180.7943739 56 177 C55.34 176.67 54.68 176.34 54 176 C53.62488281 177.01320313 53.24976563 178.02640625 52.86328125 179.0703125 C52.34696962 180.42211023 51.83000766 181.7736597 51.3125 183.125 C51.06822266 183.79015625 50.82394531 184.4553125 50.57226562 185.140625 C48.50622826 190.47570882 45.97952389 194.98280681 41.11328125 198.27734375 C34.61335729 200.66017921 28.60392695 200.33188605 22.125 197.9375 C16.12331569 192.46537607 15.20675213 184.79045655 13.57226562 177.23339844 C11.99181016 170.27508966 9.42286131 164.87637141 4 160 C-1.51618761 158.1612708 -5.88136203 159.75369125 -11 162 C-14.23761134 163.85250004 -14.23761134 163.85250004 -17 166 C-17.825 166.53625 -18.65 167.0725 -19.5 167.625 C-27.32520479 175.05894455 -31.07431881 185.15916777 -31.4375 195.75 C-31.11253662 208.31525073 -27.05545134 219.29280677 -17.86328125 228.03125 C-10.43638554 234.14904193 -2.25826179 238.12026171 7.4375 238.1875 C8.36433594 238.20167969 9.29117188 238.21585938 10.24609375 238.23046875 C13.17833373 237.98507562 15.33861389 237.22201577 18 236 C17.1875 238.4375 17.1875 238.4375 16 241 C12.23699626 242.25433458 8.72789091 242.10695422 4.8125 242.0625 C4.06291016 242.05798828 3.31332031 242.05347656 2.54101562 242.04882812 C0.69397617 242.03706354 -1.15302213 242.01912865 -3 242 C-15.61858662 283.64697421 -15.61858662 283.64697421 -27.83511353 325.4130249 C-28.40106255 327.37965267 -28.97132196 329.34504538 -29.54598999 331.30914307 C-30.33863353 334.02303029 -31.11497971 336.74104367 -31.88671875 339.4609375 C-32.11911255 340.245755 -32.35150635 341.03057251 -32.59094238 341.83917236 C-33.81486981 346.23663646 -34.27413971 349.48404062 -33 354 C-30.37886694 357.98045152 -27.17375246 361.45047525 -24 365 C-23.39027344 365.70511719 -22.78054688 366.41023438 -22.15234375 367.13671875 C-10.60756679 379.64567489 6.61528668 388.99091145 23.70068359 390.18945312 C26.55330909 390.26664473 29.39649604 390.27319922 32.25 390.25 C33.21679688 390.25773437 34.18359375 390.26546875 35.1796875 390.2734375 C41.976255 390.49959759 41.976255 390.49959759 48 388 C49.14763252 385.98850992 49.99894153 383.95154403 50.84863281 381.79638672 C52.17320785 378.57932089 53.76002932 375.55799219 55.3671875 372.47265625 C62.94361616 357.64267203 62.94361616 357.64267203 62.66015625 341.5 C60.36577231 335.0170937 57.29347843 329.02104506 54 323 C50.91864972 316.63453221 50.91864972 316.63453221 51.3125 313.5625 C51.539375 313.046875 51.76625 312.53125 52 312 C52.66 312 53.32 312 54 312 C54.11786865 312.69762451 54.2357373 313.39524902 54.35717773 314.11401367 C55.06368268 317.28590693 56.10666637 320.1475098 57.28515625 323.17578125 C57.73310547 324.33271484 58.18105469 325.48964844 58.64257812 326.68164062 C59.11115234 327.87982422 59.57972656 329.07800781 60.0625 330.3125 C60.53494141 331.53001953 61.00738281 332.74753906 61.49414062 334.00195312 C62.65914761 337.0027287 63.82788789 340.00199416 65 343 C66.36825642 339.30132188 65.60970152 337.26090801 64.12890625 333.68359375 C63.71962891 332.67232422 63.31035156 331.66105469 62.88867188 330.61914062 C62.45103516 329.56919922 62.01339844 328.51925781 61.5625 327.4375 C60.70517427 325.3546953 59.85210357 323.27013254 59.00390625 321.18359375 C58.62049072 320.26118896 58.2370752 319.33878418 57.84204102 318.38842773 C57 316 57 316 57 313 C57.66 313 58.32 313 59 313 C61.97 320.59 64.94 328.18 68 336 C69.03292721 331.86829116 68.999978 331.17538148 67.56640625 327.453125 C67.0878418 326.18662109 67.0878418 326.18662109 66.59960938 324.89453125 C66.25736328 324.02183594 65.91511719 323.14914062 65.5625 322.25 C65.22412109 321.36183594 64.88574219 320.47367188 64.53710938 319.55859375 C63.70109106 317.36846127 62.85514209 315.18272086 62 313 C62.99 313 63.98 313 65 313 C66.66666667 318 68.33333333 323 70 328 C70.66 327.67 71.32 327.34 72 327 C71.39254603 322.14036821 69.27241033 318.2594482 67 314 C69.86724686 314.57344937 70.8614515 314.8614515 73 317 C73 316.01 73 315.02 73 314 C73.47711426 314.32830811 73.95422852 314.65661621 74.44580078 314.99487305 C78.20730461 316.47509779 81.89141429 316.19087779 85.8671875 316.08203125 C86.73836212 316.06412033 87.60953674 316.04620941 88.5071106 316.02775574 C90.35480006 315.98657479 92.20237592 315.93999509 94.04980469 315.88842773 C96.83000406 315.81370928 99.60984061 315.76405042 102.390625 315.71679688 C119.68961624 315.33671117 135.7323198 313.67209517 148.8984375 301.296875 C165.66622268 282.97074547 165.54885042 259.34725236 165 236 C164.38511719 236.28875 163.77023437 236.5775 163.13671875 236.875 C162.32847656 237.24625 161.52023437 237.6175 160.6875 238 C159.88699219 238.37125 159.08648438 238.7425 158.26171875 239.125 C156 240 156 240 153 240 C152.67 239.01 152.34 238.02 152 237 C153.03125 236.814375 154.0625 236.62875 155.125 236.4375 C158.51191048 235.50830586 160.0469354 234.12468186 162.2421875 231.41015625 C162.76409668 230.77343994 163.28600586 230.13672363 163.82373047 229.48071289 C164.21189941 228.99207764 164.60006836 228.50344238 165 228 C164.30438965 226.53361084 164.30438965 226.53361084 163.59472656 225.03759766 C161.85471607 221.36747856 160.11869126 217.69548545 158.38378906 214.02294922 C157.63615646 212.44171592 156.88748189 210.86097479 156.13769531 209.28076172 C148.14956915 192.44179176 148.14956915 192.44179176 145 184 C146.89355469 184.32983398 146.89355469 184.32983398 149 185 C150.703125 187.72265625 150.703125 187.72265625 152.25 191.0625 C152.77078125 192.16722656 153.2915625 193.27195312 153.828125 194.41015625 C154.40820312 195.69212891 154.40820312 195.69212891 155 197 C155.33 197 155.66 197 156 197 C156.66 193.04 157.32 189.08 158 185 C159.65 185.33 161.3 185.66 163 186 C164.3125 188.5625 164.3125 188.5625 165 191 C167.5139349 187.18919392 167.29721196 183.27358054 167.25 178.875 C167.25773438 178.14667969 167.26546875 177.41835938 167.2734375 176.66796875 C167.40106443 172.36956531 167.40106443 172.36956531 165 169 C162.54325898 168.72235259 162.54325898 168.72235259 159.6875 168.6875 C145.19428417 167.66587547 132.38299422 159.53724567 121 151 C120.91520236 155.23988185 120.83765085 159.20301325 121.6875 163.375 C122 166 122 166 120.83691406 167.60253906 C118.5056289 169.3761005 116.81933962 169.61120885 113.921875 169.984375 C112.92542969 170.11457031 111.92898438 170.24476563 110.90234375 170.37890625 C109.86207031 170.50136719 108.82179688 170.62382812 107.75 170.75 C106.72519531 170.88792969 105.70039063 171.02585937 104.64453125 171.16796875 C99.16886333 171.85154634 94.41204739 172.13133194 89 171 C88.3125 168.1875 88.3125 168.1875 88 165 C91.0161789 161.05722068 95.32626769 160.63415635 100 160 C103.88501586 159.79151618 107.75479644 159.62629407 111.64453125 159.5390625 C115.00749531 159.23262827 115.00749531 159.23262827 117.44921875 157.3984375 C119.64559154 154.00152845 119.54698837 151.98580675 119 148 C117.73226056 145.52776436 116.52467331 143.4865583 114.9375 141.25 C114.11056354 140.02351405 113.28374198 138.79695062 112.45703125 137.5703125 C111.83562256 136.66780762 111.83562256 136.66780762 111.20166016 135.74707031 C99.38067317 118.56076742 99.38067317 118.56076742 100 107 C100.61875 108.01707031 100.61875 108.01707031 101.25 109.0546875 C112.39926032 127.02291507 129.63335437 148.38982091 150.96875 154.5703125 C154.35352152 155.28632186 157.59789136 155.62101983 161 155 C163.69105198 152.82425584 165.45532928 151.08934144 167 148 C167.2419203 144.88146439 167.18976668 141.75189094 167.1875 138.625 C167.1884668 137.27583496 167.1884668 137.27583496 167.18945312 135.89941406 C167.13556292 129.07740424 166.51776208 122.667312 165 116 C165.66 116 166.32 116 167 116 C167.2578125 116.70898438 167.515625 117.41796875 167.78125 118.1484375 C172.27927411 128.67266058 181.58301172 141.76634405 192 147 C195.58461856 147.58369443 195.58461856 147.58369443 199 147 C202.21244925 143.89463239 202.96050516 140.8422505 203.16796875 136.41796875 C203.10094299 131.60420074 202.27768635 127.01818052 201.3125 122.3125 C201.13533447 121.43835449 200.95816895 120.56420898 200.77563477 119.66357422 C198.75347078 110.16735926 195.40495935 101.65670272 191 93 C190.67 93 190.34 93 190 93 Z M60 136 C61 138 61 138 61 138 Z M357 152 C352.17124629 180.60625236 347.62135502 209.25011711 343.14210153 237.9128747 C342.23034903 243.74498843 341.31695047 249.57684432 340.40362515 255.4087119 C338.57714768 267.07173105 336.75230241 278.73500495 334.9284668 290.3984375 C333.20880362 301.39567076 331.48820108 312.39275636 329.76635742 323.38964844 C329.66201264 324.05607673 329.55766786 324.72250501 329.45016111 325.4091281 C329.02911633 328.09824995 328.6080682 330.78737129 328.18701614 333.476492 C324.18028232 359.06635591 320.17793142 384.65690209 316.18019787 410.24817361 C315.65093769 413.63619659 315.12165071 417.02421539 314.59234619 420.41223145 C314.48702365 421.08639334 314.3817011 421.76055524 314.27318697 422.45514628 C312.48709825 433.88726575 310.69834098 445.31896647 308.90878976 456.75054438 C306.99112636 469.00075646 305.07572243 481.25132019 303.16246074 493.50222051 C301.9915708 500.99914541 300.81895138 508.49579533 299.64400782 515.99208602 C298.75689954 521.65320909 297.87298948 527.31482782 296.99031091 532.97664309 C296.62816144 535.29628094 296.26496067 537.61575493 295.90064979 539.9350543 C295.40489462 543.09216745 294.91286676 546.24983926 294.42179871 549.40768433 C294.27599548 550.33037995 294.13019226 551.25307556 293.97997075 552.20373166 C293.84950768 553.04774088 293.71904461 553.89175011 293.58462811 554.76133537 C293.41403268 555.85228345 293.41403268 555.85228345 293.23999089 556.96527088 C292.92190974 559.32060507 292.92190974 559.32060507 293 563 C297.24833355 564.00717113 301.49891924 565.00449375 305.75 566 C306.9565625 566.28617188 308.163125 566.57234375 309.40625 566.8671875 C311.14648438 567.27324219 311.14648438 567.27324219 312.921875 567.6875 C313.99018555 567.93886719 315.05849609 568.19023438 316.15917969 568.44921875 C319.17219245 569.12689113 319.17219245 569.12689113 323 569 C324.38666166 563.05174881 325.53718822 557.11040899 326.47021484 551.07527161 C326.60464033 550.22118155 326.73906581 549.36709149 326.87756479 548.48711991 C327.32475176 545.6413293 327.76784249 542.7949167 328.2109375 539.94848633 C328.53381436 537.88822602 328.85694482 535.82800544 329.18030739 533.76782131 C330.06280617 528.14060329 330.9417382 522.51283318 331.82009172 516.88496685 C332.75954378 510.86989587 333.7024031 504.85535896 334.64486694 498.84075928 C336.46916644 487.19498469 338.29047307 475.54874372 340.11051762 463.90230358 C340.32009437 462.56122823 340.52967189 461.22015301 340.73925018 459.87907791 C340.84322587 459.21374543 340.94720155 458.54841296 341.05432802 457.86291889 C342.20610534 450.49314005 343.35875521 443.12349773 344.51153564 435.75387573 C344.61536487 435.0900987 344.71919409 434.42632166 344.82616965 433.74243017 C345.56197542 429.03848641 346.29782511 424.33454953 347.03369141 419.63061523 C347.13799442 418.96387022 347.24229744 418.29712521 347.34976116 417.6101758 C347.66613205 415.58781436 347.98250389 413.56545306 348.29887581 411.54309177 C348.45560401 410.54122624 348.45560401 410.54122624 348.61549843 409.51912099 C349.14337377 406.14474646 349.67125618 402.77037303 350.19915164 399.39600164 C351.2583136 392.62559854 352.31728366 385.8551655 353.37587357 379.08467293 C358.50177864 346.30085671 363.64416633 313.51971925 368.8249104 280.74451619 C369.93212474 273.73964757 371.0379289 266.73455777 372.14263916 259.72929382 C372.29342037 258.77319857 372.44420158 257.81710332 372.59955192 256.83203548 C373.19463371 253.05848082 373.789673 249.28491948 374.38454008 245.51133096 C376.08103803 234.74973175 377.78249374 223.98894606 379.49237955 213.2294656 C380.54443108 206.6065669 381.59037487 199.98272273 382.63131964 193.3580693 C383.22198245 189.60047161 383.81549992 185.84338469 384.41688156 182.08748627 C385.05854027 178.08001395 385.68694277 174.07057939 386.31396484 170.06079102 C386.50263626 168.89676663 386.69130768 167.73274225 386.88569641 166.5334444 C387.04953323 165.47142402 387.21337006 164.40940363 387.38217163 163.31520081 C387.52677008 162.40218987 387.67136852 161.48917894 387.82034874 160.54850101 C388.14326624 157.56980248 388.14326624 157.56980248 387 153 C372.15 152.505 372.15 152.505 357 152 Z M394 155 C392.00570878 156.99429122 392.15731225 160.68709993 391.73942566 163.41964722 C391.61543638 164.20870494 391.4914471 164.99776267 391.36370057 165.81073123 C390.94451257 168.48503916 390.53126168 171.16023192 390.11791992 173.83544922 C389.81819039 175.75558315 389.51809728 177.67566035 389.21766853 179.59568501 C388.39168901 184.88128439 387.57084225 190.16767027 386.75077081 195.45418906 C385.87286435 201.10749021 384.99014865 206.76004038 384.10795593 212.41267395 C382.39213115 223.41155288 380.68052007 234.41108342 378.9703607 245.4108445 C376.79540497 259.3991435 374.61583657 273.386723 372.43603516 287.37426758 C371.83559944 291.22734333 371.23517065 295.08042017 370.63474727 298.93349785 C370.23288772 301.51233752 369.83102096 304.09117606 369.42914701 306.67001349 C368.21311563 314.47364928 366.99761357 322.27736731 365.78249383 330.08114511 C360.70802786 362.66969386 355.61357864 395.25502261 350.49168587 427.83615112 C349.49409856 434.1821711 348.49736404 440.52832482 347.50083923 446.87451172 C347.17763572 448.93264158 346.85443074 450.99077121 346.53122425 453.0489006 C346.05532296 456.07938009 345.57942692 459.10986039 345.1035589 462.1403451 C343.27105696 473.80978478 341.43564156 485.47875808 339.59576637 497.14703757 C338.45320087 504.39483568 337.3142689 511.64319896 336.17816991 518.89201349 C335.40696403 523.81161035 334.63169932 528.73054106 333.852974 533.64895296 C333.38307943 536.62383127 332.91745843 539.59936661 332.45307505 542.57510972 C332.14288669 544.55487095 331.82771557 546.53384957 331.51230145 548.51278496 C330.29837805 556.3300552 329.48583025 564.10385964 329 572 C337.90505249 573.46276669 346.793808 574.56872449 355.77661133 575.42041016 C357.08548813 575.54749863 358.39436493 575.6745871 359.74290466 575.80552673 C363.28716618 576.14958255 366.83184289 576.48916495 370.37661958 576.82786608 C374.09774669 577.18421167 377.81846466 577.54478043 381.53923035 577.90487671 C388.56504361 578.58420107 395.59121 579.25979746 402.61751527 579.93401182 C410.62520211 580.70258181 418.63247987 581.47537301 426.63972819 582.24849629 C443.09270556 583.83698521 459.54618156 585.42024627 476 587 C475.43006724 579.97458938 474.63922621 573.03726212 473.52539062 566.078125 C473.38054733 565.15474838 473.23570404 564.23137177 473.08647156 563.28001404 C472.61326394 560.26944019 472.13491402 557.25971072 471.65625 554.25 C471.32353108 552.14302292 470.9910562 550.0360073 470.65881348 547.92895508 C469.9650827 543.53446743 469.26887758 539.14038135 468.57080078 534.74658203 C467.6754661 529.11033826 466.7856613 523.47323829 465.89759064 517.83584595 C465.2132421 513.49478606 464.52636228 509.15412977 463.83866882 504.81359863 C463.50943647 502.73403979 463.18091161 500.65436881 462.85310364 498.57458496 C462.39612766 495.67822263 461.9358369 492.78240666 461.47460938 489.88671875 C461.27196724 488.59633949 461.27196724 488.59633949 461.06523132 487.27989197 C460.55388456 484.0872764 460.02441949 481.07325846 459 478 C457.87980469 477.80664062 456.75960937 477.61328125 455.60546875 477.4140625 C454.13274651 477.1514114 452.66009381 476.88837017 451.1875 476.625 C450.44951172 476.49867188 449.71152344 476.37234375 448.95117188 476.2421875 C445.39405354 475.59836518 443.04505916 475.03003944 440 473 C440.86015422 462.21656722 442.48893047 451.61006183 444.21875 440.93701172 C444.57441959 438.71963414 444.92135698 436.50083914 445.25976562 434.28076172 C445.75249661 431.05090063 446.2716654 427.82628149 446.796875 424.6015625 C446.94292175 423.61193512 447.08896851 422.62230774 447.23944092 421.60269165 C448.20268816 415.91088315 449.20169555 412.66513597 454 409 C462.4820688 404.7589656 476.46478365 409.30181416 485.38964844 410.82592773 C488.25510214 411.31336792 491.12325607 411.78156391 493.9921875 412.24804688 C495.83352516 412.55614739 497.67467818 412.86535393 499.515625 413.17578125 C500.7877182 413.38223015 500.7877182 413.38223015 502.08551025 413.59284973 C514.39202123 415.73229905 514.39202123 415.73229905 517.61398315 420.27616882 C519.00560028 423.0110058 519.69288571 425.27625952 520.27099609 428.27978516 C520.47485931 429.31342194 520.67872253 430.34705872 520.88876343 431.41201782 C521.09820587 432.52644257 521.30764832 433.64086731 521.5234375 434.7890625 C521.75149078 435.96093109 521.97954407 437.13279968 522.21450806 438.34017944 C522.94379764 442.10008967 523.6594732 445.86244914 524.375 449.625 C524.84809001 452.07178264 525.3220404 454.51839908 525.796875 456.96484375 C528.9557469 473.29289022 531.99482381 489.64306041 535 506 C535.33 506 535.66 506 536 506 C541.30240889 470.43008932 546.59388702 434.85856122 551.8776989 399.2858839 C553.08087916 391.18579335 554.2844599 383.08576256 555.48876953 374.98583984 C558.29205825 356.13100935 561.09256864 337.27577235 563.88586998 318.41945934 C565.12929549 310.02618236 566.37419485 301.63312978 567.62286377 293.2406311 C568.69370215 286.04329364 569.76156307 278.84552234 570.8255794 271.64717305 C571.37277775 267.94586264 571.92140029 264.2447777 572.47377014 260.54423523 C573.07593817 256.50975255 573.67134904 252.47430148 574.26611328 248.4387207 C574.53232703 246.66594615 574.53232703 246.66594615 574.80391884 244.85735798 C575.04250901 243.22710572 575.04250901 243.22710572 575.28591919 241.56391907 C575.42477602 240.62782964 575.56363285 239.69174021 575.70669746 238.72728443 C576.02160913 235.79906672 576.04952014 232.94286092 576 230 C557.53039972 221.97069778 538.94759413 214.2310175 520.3269043 206.55981445 C506.0998443 200.6980218 491.88855286 194.79951094 477.6875 188.875 C462.31853039 182.46457133 446.94530119 176.06467467 431.5625 169.6875 C430.73535492 169.34450867 429.90820984 169.00151733 429.05599976 168.64813232 C425.19324429 167.04651741 421.32992436 165.44629891 417.46533203 163.84912109 C414.35375575 162.56268417 411.24608213 161.26725526 408.14013672 159.96728516 C406.58171548 159.31801045 405.02328484 158.66875831 403.46484375 158.01953125 C402.74212784 157.71520676 402.01941193 157.41088226 401.27479553 157.09733582 C397.75697037 155.53634796 397.75697037 155.53634796 394 155 Z M165 200 C164.67 201.65 164.34 203.3 164 205 C162.68 205 161.36 205 160 205 C160.60745397 209.85963179 162.72758967 213.7405518 165 218 C165.33 218 165.66 218 166 218 C166 212.06 166 206.12 166 200 C165.67 200 165.34 200 165 200 Z M-12 238 C-12.07654536 242.51617599 -12.10228696 246.59085217 -11 251 C-9.20446585 248.30669878 -8.57303539 246.8539399 -7.875 243.8125 C-7.58625 242.554375 -7.2975 241.29625 -7 240 C-9.475 239.01 -9.475 239.01 -12 238 Z M73 318 C74 320 74 320 74 320 Z M457 414 C455.59545731 415.17841984 455.59545731 415.17841984 455.86004066 418.5095644 C455.92040951 423.03217604 456.51776172 427.38846755 457.23934937 431.8469696 C457.37269546 432.70217864 457.50604156 433.55738768 457.64342844 434.43851215 C458.08898872 437.28637186 458.54326901 440.13276885 458.99755859 442.97924805 C459.31996049 445.02819154 459.64182049 447.07722036 459.96318054 449.12632751 C460.83590274 454.68114403 461.71617649 460.23474034 462.59779692 465.78815055 C463.5208501 471.61098357 464.43688802 477.43491994 465.35366821 483.25874329 C467.09239374 494.29709047 468.83733183 505.33444608 470.58454192 516.37145311 C472.5651811 528.88482088 474.53921935 541.3992269 476.51254916 553.9137491 C478.91995779 569.18105646 481.32816623 584.44823584 483.74203491 599.71452332 C483.91305166 600.79624302 484.08406842 601.87796272 484.2602675 602.9924618 C485.05880203 608.0432079 485.85760752 613.09391084 486.65693665 618.14453125 C487.32483557 622.36568032 487.99030373 626.5872064 488.6543231 630.80896735 C488.97783239 632.85949317 489.30462048 634.90947009 489.63212967 636.95936012 C489.81295467 638.10459333 489.99377968 639.24982655 490.18008423 640.42976379 C490.40792068 641.86036495 490.40792068 641.86036495 490.64035988 643.31986713 C491.79441806 651.92021256 491.35744144 658.41054902 487 666 C486.67257812 666.61617187 486.34515625 667.23234375 486.0078125 667.8671875 C481.38491333 675.45954015 473.5527494 679.50198886 465.15751648 681.57260132 C458.0426837 683.16342098 451.24787739 683.43425044 443.97973633 683.41650391 C442.63131974 683.4239061 441.28290982 683.43261784 439.93450928 683.44252014 C436.31745567 683.46558443 432.70057429 683.47097713 429.08345628 683.47317934 C425.28472163 683.4788876 421.48609543 683.50218718 417.68742371 683.52377319 C410.51143753 683.56210728 403.33548291 683.58644973 396.15942067 683.60489786 C383.27853722 683.6384735 370.39774762 683.69602083 357.51697749 683.75888956 C352.99905896 683.7803802 348.48117345 683.79564874 343.96321547 683.80572915 C341.83671365 683.81104828 339.71023204 683.81851452 337.58374023 683.82688904 C334.98871539 683.83691039 332.39367306 683.84328575 329.79862976 683.84544373 C328.66192841 683.85089706 327.52522705 683.8563504 326.3540802 683.86196899 C324.86674488 683.86580314 324.86674488 683.86580314 323.34936237 683.86971474 C320.97865411 683.84525518 320.97865411 683.84525518 319 685 C319.31735576 687.93554079 319.53608244 689.5480599 321.68730164 691.64373875 C324.573262 693.33618437 326.4162928 693.37973474 329.75317383 693.38768005 C331.51500252 693.402537 331.51500252 693.402537 333.31242371 693.41769409 C335.24025444 693.41094162 335.24025444 693.41094162 337.20703125 693.40405273 C338.5773016 693.40975667 339.94756721 693.41672102 341.31782532 693.42485046 C345.03941827 693.44280682 348.76077571 693.44160743 352.48239899 693.43590808 C355.59560209 693.43281595 358.70875997 693.43890982 361.82195663 693.44494683 C369.17610178 693.45900217 376.53013083 693.45742593 383.88427734 693.44604492 C391.44824012 693.43459711 399.01184695 693.44858049 406.57576275 693.4754414 C413.083858 693.49768002 419.59184222 693.50421648 426.09997272 693.49836498 C429.98036011 693.49500944 433.8605201 693.49731465 437.74087524 693.51461601 C441.39852285 693.5302108 445.05564986 693.52599291 448.71327782 693.50731087 C450.67664299 693.50193138 452.64003221 693.51604851 454.60334778 693.53100586 C469.01938447 693.41257969 481.20733692 688.6126507 491.8125 678.8125 C499.32225248 670.81008645 501.50369518 663.30880235 501.26215744 652.49485779 C500.85500158 643.53892949 499.23143337 634.68501992 497.81884766 625.84570312 C497.47630095 623.64813049 497.13475062 621.45040235 496.79411316 619.25253296 C495.87258579 613.32585632 494.93692424 607.40149209 493.9983449 601.47749519 C493.01594301 595.26269515 492.04591951 589.0459625 491.0743103 582.82946777 C489.44266352 572.40169221 487.80243619 561.97529251 486.15625 551.54980469 C484.46467732 540.83680334 482.78043833 530.12268387 481.10449219 519.40722656 C481.00107815 518.74603823 480.89766411 518.08484989 480.79111631 517.40362555 C480.68787677 516.74354134 480.58463723 516.08345714 480.47826922 515.40337038 C480.27036989 514.07413216 480.06246774 512.74489438 479.85456276 511.41565704 C479.75201576 510.76001747 479.64946876 510.1043779 479.54381428 509.42887047 C477.84508495 498.57002231 476.13878519 487.71236221 474.43242216 476.85471153 C473.8519066 473.15844094 473.27251461 469.46199558 472.69331741 465.76551819 C471.78323988 459.96009187 470.86854111 454.1554115 469.95026588 448.3512764 C469.61417421 446.22264262 469.27956443 444.09377425 468.94655037 441.96465683 C468.49153863 439.05735803 468.03109432 436.15097015 467.56924438 433.24475098 C467.37370812 431.98332488 467.37370812 431.98332488 467.17422163 430.69641542 C466.04375971 422.46084091 466.04375971 422.46084091 462.625 415.0625 C460.76560827 413.63516709 460.76560827 413.63516709 457 414 Z M469 414 C469.17410432 415.00422752 469.34820864 416.00845505 469.52758884 417.04311371 C474.33185125 444.79535435 478.86512707 472.58430278 483.24609375 500.40625 C483.57391774 502.48648765 483.90175362 504.56672342 484.22960091 506.6469574 C485.59187904 515.29349151 486.95273608 523.940247 488.30946255 532.58765411 C490.22911968 544.8228168 492.1578062 557.05648007 494.0986647 569.28829813 C495.47949641 577.99531968 496.8502845 586.70388701 498.21370369 595.41365194 C499.02209812 600.57618957 499.83464948 605.73798484 500.65807915 610.89814758 C501.42884984 615.72972508 502.18702645 620.56311971 502.93601036 625.39812088 C503.21044346 627.1558683 503.48920869 628.91294653 503.7729454 630.66921616 C505.15441123 639.23593926 506.22945461 647.64400923 506.26673889 656.3338623 C506.27043029 657.02547722 506.27412169 657.71709214 506.27792495 658.42966509 C506.13936417 668.81561283 501.24761284 676.77337761 494.046875 683.9453125 C490.27613062 687.38503733 486.69840908 690.00317614 482 692 C482 692.33 482 692.66 482 693 C489.01077881 693.10157378 496.02136725 693.17153861 503.03271484 693.21972656 C505.41690157 693.23981893 507.80103915 693.26709781 510.18505859 693.30175781 C513.61568338 693.35037859 517.04565555 693.37299312 520.4765625 693.390625 C521.53928375 693.41127014 522.602005 693.43191528 523.69692993 693.45318604 C529.6842511 693.45499389 533.62184574 693.31453572 538 689 C538.83082053 686.63176845 538.83082053 686.63176845 538.62109375 684.05078125 C538.60626953 683.12072266 538.59144531 682.19066406 538.57617188 681.23242188 C538.53041016 680.26884766 538.48464844 679.30527344 538.4375 678.3125 C538.41880859 677.33732422 538.40011719 676.36214844 538.38085938 675.35742188 C538.65289696 670.83677425 538.65289696 670.83677425 537 667 C534.93221142 666.70035594 532.8557051 666.46045389 530.77734375 666.24609375 C529.51728516 666.11396484 528.25722656 665.98183594 526.95898438 665.84570312 C525.61849918 665.7095409 524.27800426 665.57347444 522.9375 665.4375 C521.59305707 665.29792894 520.24865537 665.15796014 518.90429688 665.01757812 C515.6032506 664.67445862 512.30183269 664.33545333 509 664 C508.67 662.68 508.34 661.36 508 660 C508.66008057 660.06058594 509.32016113 660.12117187 510.00024414 660.18359375 C513.02071014 660.45897594 516.04159075 660.72952537 519.0625 661 C520.10083984 661.09539062 521.13917969 661.19078125 522.20898438 661.2890625 C523.22412109 661.37929688 524.23925781 661.46953125 525.28515625 661.5625 C526.21207275 661.64628906 527.13898926 661.73007812 528.09399414 661.81640625 C531.40194766 662.02539399 534.68632948 662.02883019 538 662 C538.46476085 642.89117894 538.02247769 624.22077399 535.77947998 605.22857666 C534.36049296 593.20789189 533.49004385 581.36925396 533.32836914 569.25634766 C533.21685448 562.61403904 532.57618986 556.46074599 531 550 C530.34 550.33 529.68 550.66 529 551 C528.731875 552.2375 528.46375 553.475 528.1875 554.75 C527.1760697 559.0758096 525.70700359 561.36390856 522 564 C517.8472183 564.6795461 515.6646237 564.31901938 511.875 562.5 C504.62059023 556.1918176 501.43132106 547.68989291 500.71484375 538.23828125 C500.56598385 531.63019601 500.45831755 526.77035091 504 521 C506.27114476 519.86442762 507.72293619 519.76915682 510.25 519.6875 C511.37148438 519.63142578 511.37148438 519.63142578 512.515625 519.57421875 C516.67641406 520.28730996 519.70604758 522.28168954 522.25585938 525.66772461 C523.46268011 527.6176152 524.55803942 529.59528808 525.625 531.625 C526.20519897 532.69741943 526.20519897 532.69741943 526.79711914 533.79150391 C534.01606298 547.33601095 536.20804669 559.11957965 536.4375 574.4375 C536.64639045 584.42240414 537.21912772 594.20945218 538.5 604.125 C540.13388633 616.91159764 540.49154903 629.64099924 540.70898438 642.51416016 C540.7297554 643.66681618 540.7297554 643.66681618 540.75094604 644.84275818 C540.77542237 646.2756817 540.79573977 647.7086857 540.81082153 649.14173889 C540.88534356 653.83622901 541.35514142 658.35760033 542 663 C545.96 663.33 549.92 663.66 554 664 C553.67 665.32 553.34 666.64 553 668 C549.37 668 545.74 668 542 668 C542 673.61 542 679.22 542 685 C548.82576024 679.56725205 555.15804316 673.44278451 558 665 C558.51016696 653.98192083 555.21116413 642.25057225 553.23046875 631.45703125 C552.83755528 629.29362562 552.445049 627.13014601 552.05291748 624.96659851 C550.99285792 619.12827134 549.9248639 613.29142242 548.85477829 607.45492554 C548.18646263 603.8068374 547.5202832 600.1583654 546.85476685 596.50976562 C540.03731483 559.14379503 533.04969049 521.81093897 525.9375 484.5 C525.72150021 483.36627079 525.50550041 482.23254158 525.28295517 481.06445694 C524.03848478 474.53394037 522.79147275 468.00391738 521.54062653 461.47461891 C521.16408092 459.50886591 520.78793038 457.54303718 520.41222382 455.57712364 C519.5817481 451.23461981 518.74479502 446.89372303 517.88766479 442.55639648 C517.3099105 439.63144717 516.76974083 436.70406772 516.26394653 433.76586914 C516.03319427 432.51346436 515.80244202 431.26105957 515.56469727 429.97070312 C515.3800441 428.90243286 515.19539093 427.8341626 515.00514221 426.73352051 C513.71578121 423.22705675 512.11653083 421.99442699 509 420 C506.20072131 419.26146843 503.62068753 418.71666704 500.77734375 418.296875 C499.99484756 418.16935852 499.21235138 418.04184204 498.40614319 417.91046143 C495.91865997 417.50911887 493.42836971 417.12968959 490.9375 416.75 C489.25954818 416.48051715 487.58181051 416.20969724 485.90429688 415.9375 C477.49504597 414.51821564 477.49504597 414.51821564 469 414 Z M-74 416 C-74.10489746 417.04003174 -74.10489746 417.04003174 -74.21191406 418.10107422 C-76.62034853 441.52329307 -76.62034853 441.52329307 -79.0625 452.375 C-79.22459961 453.09800293 -79.38669922 453.82100586 -79.55371094 454.56591797 C-80.36347467 457.96347636 -81.37876744 460.91759421 -83 464 C-84.65448522 459.05716099 -86.29205432 454.10976374 -87.90234375 449.15234375 C-88.58064575 447.08070185 -89.25903242 445.00908768 -89.9375 442.9375 C-90.27201172 441.90044922 -90.60652344 440.86339844 -90.95117188 439.79492188 C-92.88955309 433.90508147 -95.06710786 428.4655462 -98 423 C-98.66 423.33 -99.32 423.66 -100 424 C-99.75354736 424.62229492 -99.50709473 425.24458984 -99.25317383 425.88574219 C-98.0935105 428.83564423 -96.95312614 431.79268723 -95.8125 434.75 C-95.42513672 435.72710938 -95.03777344 436.70421875 -94.63867188 437.7109375 C-93.33556484 441.11409305 -92.15979748 444.54539436 -91 448 C-90.76858307 448.62490326 -90.53716614 449.24980652 -90.29873657 449.89364624 C-83.27642547 469.27527269 -85.69122305 490.79689499 -86.12054443 511.05084229 C-86.23339058 516.42752341 -86.32096003 521.80344097 -86.37457085 527.18105125 C-86.40907648 529.66068727 -86.47945549 532.13750647 -86.55152893 534.61628723 C-86.71467033 544.08964973 -85.39815855 551.24068673 -81.43235779 559.87858582 C-76.65318811 570.29341941 -77.7522926 580.08256407 -80 591 C-81.30839844 590.9690625 -82.61679687 590.938125 -83.96484375 590.90625 C-107.54557092 590.94310208 -125.67630745 603.50201024 -141.75 619.484375 C-143.67989874 621.64210901 -144.9098114 623.34885954 -146 626 C-142.77513169 624.61491556 -141.00617601 623.09407495 -138.8125 620.375 C-124.67486368 603.85126472 -106.92977014 596.72838011 -86 593 C-88.48838144 595.6422001 -91.16263092 597.36860283 -94.29296875 599.20947266 C-102.68107284 604.156959 -109.71282571 609.76878665 -116.60742188 616.62207031 C-117.90046187 617.90150891 -119.2226061 619.15134992 -120.546875 620.3984375 C-125.01953497 624.46817313 -125.01953497 624.46817313 -127 630 C-124.56846928 627.58131187 -122.14950853 625.15661545 -119.78125 622.67578125 C-106.85445942 609.28415745 -90.17512977 595.2085534 -70.734375 594.5390625 C-68.40608 594.54444623 -66.0777549 594.57456452 -63.75 594.625 C-62.47181396 594.63789062 -61.19362793 594.65078125 -59.87670898 594.6640625 C-39.24325943 594.92969189 -18.6098041 596.03333296 2 597 C-0.54218192 599.56364747 -3.11247668 601.98820829 -5.875 604.3125 C-9.66915598 607.59508439 -12.82971568 611.11640171 -16 615 C-15.01 615 -14.02 615 -13 615 C-11.43847041 613.46400612 -11.43847041 613.46400612 -9.9375 611.4375 C-5.17456146 605.73210767 1.09404777 600.87070657 8 598 C17.12846752 597.19103455 26.42319143 598.34514129 35.5 599.3125 C36.71558594 599.43044922 37.93117188 599.54839844 39.18359375 599.66992188 C52.399942 601.04515555 63.52066742 602.28997014 73 612.125 C76.11061706 615.34329226 78.49629316 617.09925863 83 618 C81.8951775 616.8951775 80.78841139 615.7922718 79.67578125 614.6953125 C78.41838804 613.42326436 77.19141157 612.12103154 75.98046875 610.8046875 C63.10407624 597.13902399 44.52371021 596.81818363 26.703125 595.41796875 C25.9513221 595.35671499 25.1995192 595.29546124 24.42493439 595.2323513 C4.84264516 593.65192142 -14.77942253 593.02321513 -34.41113281 592.40332031 C-39.24045746 592.24882179 -44.06942498 592.08383867 -48.8984375 591.91992188 C-58.26531575 591.60342563 -67.63251249 591.2978818 -77 591 C-76.85925049 590.32960693 -76.71850098 589.65921387 -76.57348633 588.96850586 C-76.39068115 588.08042236 -76.20787598 587.19233887 -76.01953125 586.27734375 C-75.83753174 585.40070068 -75.65553223 584.52405762 -75.46801758 583.62084961 C-73.42458773 572.17785564 -77.25450967 562.17407398 -81.9140625 551.82421875 C-85.37851572 539.62386011 -84.01388227 526.02947433 -83.703125 513.47973633 C-83.62558505 510.3362184 -83.55804646 507.19261027 -83.4921875 504.04882812 C-83.36028648 498.03144608 -83.19301402 492.01572041 -83 486 C-82.9706839 485.06490601 -82.9413678 484.12981201 -82.91116333 483.16638184 C-82.82263376 480.53857431 -82.71755046 477.91205331 -82.60546875 475.28515625 C-82.579617 474.51343582 -82.55376526 473.74171539 -82.52713013 472.9466095 C-82.27328766 467.67895219 -81.00397927 464.31913211 -78.33984375 459.87890625 C-72.37420314 447.06060559 -72.31766576 430.89787679 -72 417 C-72.99 416.505 -72.99 416.505 -74 416 Z M163 421 C164 423 164 423 164 423 Z M165 426 C166 429 166 429 166 429 Z M166 429 C167 433 167 433 167 433 Z M451 430 C450.14247587 435.21394437 449.28805813 440.42838463 448.43652344 445.64331055 C448.14636329 447.41753921 447.85535266 449.19162899 447.56347656 450.96557617 C447.14424902 453.51445111 446.72807598 456.06380874 446.3125 458.61328125 C446.18125732 459.40712723 446.05001465 460.20097321 445.91479492 461.01887512 C445.42350228 464.04758633 445 466.92601979 445 470 C446.41538717 470.33872513 447.83237963 470.67074624 449.25 471 C450.43335938 471.2784375 450.43335938 471.2784375 451.640625 471.5625 C454.25556002 472.12154828 454.25556002 472.12154828 458 472 C456.52744514 457.91385023 454.31400986 443.96995034 452 430 C451.67 430 451.34 430 451 430 Z M167 433 C167.59619955 437.86896303 168.56976822 442.32790951 170 447 C171.25127906 443.45332822 170.72285053 441.27746562 169.5625 437.75 C169.27503906 436.85796875 168.98757813 435.9659375 168.69140625 435.046875 C168.46324219 434.37140625 168.23507812 433.6959375 168 433 C167.67 433 167.34 433 167 433 Z M213 445 C214 448 214 448 214 448 Z M214 448 C215 452 215 452 215 452 Z M171 447 C171 448.98 171 450.96 171 453 C170.34 453 169.68 453 169 453 C170.33916974 456.68466386 171.98963735 459.68060397 174.23828125 462.88671875 C174.88684082 463.81581055 175.53540039 464.74490234 176.20361328 465.70214844 C176.8995459 466.68731445 177.59547852 467.67248047 178.3125 468.6875 C179.03163574 469.71262695 179.75077148 470.73775391 180.49169922 471.79394531 C186.91086744 480.92361832 193.41520848 489.98923265 200 499 C200.57492187 499.78890625 201.14984375 500.5778125 201.7421875 501.390625 C209.29978017 511.75343766 216.99139148 521.98106731 225 532 C223.5459375 532.34611328 223.5459375 532.34611328 222.0625 532.69921875 C214.77303086 534.46149791 207.54169076 536.34910812 200.375 538.5625 C199.7253125 538.75996826 199.075625 538.95743652 198.40625 539.16088867 C194.38873821 540.42625902 190.71819193 542.02649813 187 544 C187.66 544.33 188.32 544.66 189 545 C190.96025514 544.334425 192.89339594 543.58879239 194.8125 542.8125 C201.08871425 540.41922885 207.41040775 538.89905291 214 537.625 C214.89565674 537.44557861 215.79131348 537.26615723 216.71411133 537.08129883 C225.50421905 535.45839535 225.50421905 535.45839535 230 537 C231.8984375 539.06640625 231.8984375 539.06640625 233.375 541.5625 C233.87773438 542.38878906 234.38046875 543.21507812 234.8984375 544.06640625 C235.26195312 544.70449219 235.62546875 545.34257813 236 546 C234.35 546 232.7 546 231 546 C231 546.66 231 547.32 231 548 C230.20384277 548.24435791 230.20384277 548.24435791 229.39160156 548.49365234 C223.28620257 550.43916886 217.53209415 552.8713682 211.75 555.625 C210.37618164 556.27879639 210.37618164 556.27879639 208.97460938 556.94580078 C199.4331121 561.59719665 191.25177608 567.33280411 183 574 C183.33 574.66 183.66 575.32 184 576 C184.680625 575.45472656 185.36125 574.90945313 186.0625 574.34765625 C200.72898844 562.93822043 221.62958581 549.26967456 241 549.875 C241.763125 549.89304687 242.52625 549.91109375 243.3125 549.9296875 C243.869375 549.95289063 244.42625 549.97609375 245 550 C245.05929687 550.56976562 245.11859375 551.13953125 245.1796875 551.7265625 C247.18665299 557.28872401 254.74024807 561.35009484 259.90722656 563.96533203 C265.70777459 566.59757469 271.66734411 568.79264709 277.875 570.25 C279.421875 570.62125 279.421875 570.62125 281 571 C281.33 571.66 281.66 572.32 282 573 C281.2884375 573.26167969 280.576875 573.52335938 279.84375 573.79296875 C268.52934425 578.59537449 260.28290827 587.23614867 252 596 C252.33 596.66 252.66 597.32 253 598 C253.77601563 597.16597656 254.55203125 596.33195313 255.3515625 595.47265625 C265.56185825 584.73969821 276.56513664 574.35987957 292.11279297 573.90991211 C296.31964252 574.00740787 300.22658841 574.56648241 304.35546875 575.3203125 C305.52980217 575.53202591 305.52980217 575.53202591 306.7278595 575.74801636 C308.37822106 576.04885833 310.02793128 576.35329338 311.67700195 576.66113281 C314.16009858 577.11993701 316.64687733 577.55242769 319.13476562 577.984375 C332.30695484 580.36975137 344.47908448 583.93238389 353 595 C355.77385527 599.33538425 358.30067775 603.78107374 359.85253906 608.70507812 C361.86965901 614.59438863 361.86965901 614.59438863 366.59741211 618.27368164 C369.85920274 619.04182198 373.04485628 619.50359624 376.375 619.875 C378.72115297 620.22977381 381.06623162 620.59172819 383.41015625 620.9609375 C384.54211426 621.12948242 385.67407227 621.29802734 386.84033203 621.47167969 C390.9563129 622.15990273 394.86000926 623.17495296 398.8125 624.5 C399.91207031 624.8609375 401.01164063 625.221875 402.14453125 625.59375 C408.64248158 628.79383498 410.67408532 633.15004125 413.03100586 639.65454102 C416.05237478 648.57185198 416.05237478 648.57185198 422.1796875 655.34765625 C425.36195872 656.61733345 425.36195872 656.61733345 428.49609375 657.25390625 C431 658 431 658 432.27734375 659.57421875 C433.32207951 663.08114257 433.73432605 666.62505809 434.125 670.25 C434.21136719 670.99507812 434.29773438 671.74015625 434.38671875 672.5078125 C434.59786867 674.33777846 434.79984545 676.16879879 435 678 C438.62484173 678.08837761 442.24940017 678.14084706 445.875 678.1875 C446.88820313 678.21263672 447.90140625 678.23777344 448.9453125 678.26367188 C460.15517732 678.37145904 470.03029268 675.8215231 478.203125 667.8515625 C484.00767889 661.56677573 486.20558439 657.42432833 486.13238525 648.87094116 C485.90071552 643.84689095 485.09327422 638.93149201 484.28515625 633.97265625 C484.10995956 632.86192245 483.93476288 631.75118866 483.7542572 630.60679626 C483.38542392 628.27757476 483.01293904 625.94892881 482.63696289 623.62084961 C482.06046594 620.04990057 481.49510668 616.47732302 480.93164062 612.90429688 C480.57095421 610.63531456 480.20964815 608.36643065 479.84765625 606.09765625 C479.6778273 605.02894791 479.50799835 603.96023956 479.33302307 602.85914612 C479.17293259 601.87059128 479.0128421 600.88203644 478.84790039 599.86352539 C478.70800186 598.99433975 478.56810333 598.12515411 478.42396545 597.22962952 C478.02116331 594.8410833 478.02116331 594.8410833 477 592 C470.95932657 591.34472507 464.91741333 590.7015228 458.875 590.0625 C457.39151062 589.90518402 457.39151062 589.90518402 455.87805176 589.74468994 C440.08173863 588.07700329 424.27518001 586.54137479 408.46001053 585.06441307 C405.29848242 584.76895135 402.13706458 584.47233583 398.97567749 584.17536926 C396.84723096 583.97553461 394.71878246 583.77572084 392.59033203 583.57592773 C391.53150755 583.47652673 390.47268307 583.37712572 389.38177299 583.27471256 C382.98343762 582.6750411 376.58436104 582.08411266 370.18468666 581.49891567 C366.1080253 581.12421549 362.03210944 580.74182229 357.95633316 580.35762596 C356.04287379 580.17894498 354.12910623 580.00352903 352.21502304 579.83165932 C342.21568219 578.93239611 332.67491399 577.82854213 323 575 C318.77390211 573.96630145 314.54330398 572.9517516 310.3125 571.9375 C309.24966797 571.68162109 308.18683594 571.42574219 307.09179688 571.16210938 C306.04701172 570.91138672 305.00222656 570.66066406 303.92578125 570.40234375 C302.92369629 570.16112793 301.92161133 569.91991211 300.88916016 569.67138672 C298.19814473 569.04604513 295.50042487 568.4899618 292.79296875 567.94140625 C291.54128906 567.63074219 290.28960938 567.32007813 289 567 C288.67 566.34 288.34 565.68 288 565 C286.02 565 284.04 565 282 565 C282 530.68 282 496.36 282 461 C274.74 461 267.48 461 260 461 C260 462.32 260 463.64 260 465 C265.94 465.33 271.88 465.66 278 466 C278 483.82 278 501.64 278 520 C276.68 520 275.36 520 274 520 C274 503.17 274 486.34 274 469 C269.38 469 264.76 469 260 469 C259.67 497.71 259.34 526.42 259 556 C257.68 556 256.36 556 255 556 C254.505 507.49 254.505 507.49 254 458 C236.56192449 457.35414535 219.24407844 456.86403092 201.8125 456.9375 C199.67122504 456.94254059 197.52994889 456.94709884 195.38867188 456.95117188 C190.25908384 456.96193933 185.12955613 456.97905251 180 457 C180 458.32 180 459.64 180 461 C178.125 460.8125 178.125 460.8125 176 460 C174.33185111 457.08073944 173.99635565 455.1858617 174.0625 451.8125 C174.041875 450.884375 174.02125 449.95625 174 449 C173.01 448.34 172.02 447.68 171 447 Z M116 470 C113.19909007 480.92729645 110.6456337 491.88591328 108.29296875 502.91796875 C108.12990046 503.68036676 107.96683216 504.44276478 107.7988224 505.22826576 C106.94086884 509.24044615 106.08627603 513.25332421 105.23461914 517.2668457 C104.35784907 521.39534806 103.46913451 525.52118802 102.57789135 529.64658642 C101.8893265 532.84422898 101.20951688 536.04368699 100.53209877 539.24370766 C100.20804103 540.7670109 99.88069766 542.28961917 99.54994774 543.81148338 C99.0906455 545.92870389 98.6438281 548.04820113 98.19995117 550.16870117 C97.94332199 551.37064621 97.68669281 552.57259125 97.42228699 553.81095886 C96.91524009 557.64009277 97.49329833 560.3719414 98.62524414 564.00894165 C99.10843267 566.57609715 98.64992285 568.33190759 97.99609375 570.85693359 C97.7525415 571.81828217 97.50898926 572.77963074 97.25805664 573.77011108 C96.98727295 574.8024588 96.71648926 575.83480652 96.4375 576.8984375 C95.88273551 579.09112636 95.32805048 581.28383532 94.7734375 583.4765625 C93.8878966 586.92928747 92.99845631 590.38097232 92.10644531 593.83203125 C91.24863745 597.16424824 90.40504576 600.49983448 89.5625 603.8359375 C89.29171631 604.86423676 89.02093262 605.89253601 88.74194336 606.95199585 C87.48143862 611.96008375 86.53451285 615.88922197 88 621 C91.67335162 621.89450619 94.66786923 622.00628769 98.41699219 621.57861328 C99.47448669 621.46164093 100.5319812 621.34466858 101.621521 621.22415161 C102.75188782 621.0908847 103.88225464 620.9576178 105.046875 620.8203125 C106.21381897 620.68809296 107.38076294 620.55587341 108.58306885 620.41964722 C111.04457122 620.13907821 113.50564631 619.85473831 115.96630859 619.56689453 C119.74867093 619.12515522 123.53234246 618.69642356 127.31640625 618.26953125 C129.70581709 617.99555738 132.09514322 617.72084351 134.484375 617.4453125 C135.62283875 617.31609406 136.76130249 617.18687561 137.93426514 617.05374146 C138.979151 616.93046478 140.02403687 616.80718811 141.10058594 616.68017578 C142.02482361 616.57279083 142.94906128 616.46540588 143.90130615 616.35476685 C145.98156281 616.21155617 145.98156281 616.21155617 147 615 C147.25229297 613.1488383 147.47568492 611.29372891 147.6875 609.4375 C149.04914524 600.09166223 152.30649026 591.04508171 156.75390625 582.71484375 C158.3772945 579.99331199 158.3772945 579.99331199 157 577 C150.82001329 588.96363222 146.12795143 599.60642333 144 613 C138.46007662 613 136.82372339 610.81235964 132.89453125 607.11328125 C120.87739419 594.66740242 112.02696645 578.63660349 103 564 C102.40566162 563.31494385 101.81132324 562.6298877 101.19897461 561.92407227 C99.20022123 557.04949087 100.80942085 552.56582184 101.91796875 547.546875 C102.15420456 546.40514832 102.39044037 545.26342163 102.63383484 544.08709717 C103.4040921 540.3872437 104.20136657 536.69382201 105 533 C105.51801098 530.5426486 106.03445354 528.08496604 106.54931641 525.62695312 C108.39011347 516.87168778 110.26151925 508.12303616 112.14770508 499.37744141 C112.95408845 495.63296006 113.75295878 491.88693827 114.55078125 488.140625 C114.79758133 487.00635071 115.04438141 485.87207642 115.29866028 484.70343018 C115.63482613 483.11821564 115.63482613 483.11821564 115.9777832 481.50097656 C116.27492973 480.11969574 116.27492973 480.11969574 116.57807922 478.71051025 C117.03595178 475.76903799 117.07149027 472.97223303 117 470 C116.67 470 116.34 470 116 470 Z M40 516 C40 521.61 40 527.22 40 533 C54.52 533 69.04 533 84 533 C84 527.06 84 521.12 84 515 C77.8944529 514.97535487 71.78893449 514.95716629 65.68334961 514.94506836 C63.60456844 514.94002712 61.52579084 514.93319426 59.44702148 514.92456055 C56.46597414 514.91248578 53.48497351 514.90676976 50.50390625 514.90234375 C49.56849503 514.89718246 48.6330838 514.89202118 47.66932678 514.88670349 C46.80850998 514.88662796 45.94769318 514.88655243 45.06079102 514.88647461 C43.91828636 514.88314369 43.91828636 514.88314369 42.75270081 514.87974548 C40.97189395 514.80909045 40.97189395 514.80909045 40 516 Z M506.125 525.4375 C504.4505849 529.25144551 504.76321893 532.89579485 505 537 C505.433125 536.360625 505.86625 535.72125 506.3125 535.0625 C508 533 508 533 511 532 C512.56118428 531.93259135 514.1250252 531.91485544 515.6875 531.9375 C516.89986328 531.95103516 516.89986328 531.95103516 518.13671875 531.96484375 C519.05904297 531.98224609 519.05904297 531.98224609 520 532 C517.57459219 527.50459675 517.57459219 527.50459675 514 524 C510.65588123 523.51231601 508.85299348 523.34603833 506.125 525.4375 Z M508 537 C505.6573368 539.92792518 505.6573368 539.92792518 505.9375 543.8125 C507.09809026 549.55037146 509.40040614 554.27412242 513.375 558.5625 C515.96106403 560.2111858 515.96106403 560.2111858 519.125 560.25 C522.3465617 559.19295092 522.3465617 559.19295092 523.9375 555.5625 C525.63048134 550.03541386 525.32328461 544.10589115 523.0546875 538.78125 C521.63944997 536.39107106 520.64354675 535.85736651 518 535 C513.63260717 534.44415 511.69777838 534.53481441 508 537 Z M185 545 C185 545.99 185 546.98 185 548 C185.66 547.01 186.32 546.02 187 545 C186.34 545 185.68 545 185 545 Z M171.8828125 616.86328125 C170.05465789 617.05845764 168.22643981 617.25304034 166.39816284 617.44706726 C162.58037666 617.85372228 158.76314311 618.26510826 154.94628906 618.68041992 C150.1286491 619.2045924 145.31018305 619.72060124 140.49133682 620.23355293 C124.14817599 621.97384521 107.80446641 623.7178942 91.4921875 625.73046875 C90.06085983 625.90549675 90.06085983 625.90549675 88.60061646 626.08406067 C87.75127533 626.19191391 86.9019342 626.29976715 86.02685547 626.41088867 C85.31157684 626.5015007 84.59629822 626.59211273 83.85934448 626.68547058 C81.77850135 626.98851875 81.77850135 626.98851875 79 628 C79 643.84 79 659.68 79 676 C102.43 676 125.86 676 150 676 C150.66 673.69 151.32 671.38 152 669 C156.22163656 666.18557562 159.9846465 665.88682711 164.97387695 665.79467773 C165.93449539 665.77473251 166.89511383 665.75478729 167.88484192 665.73423767 C168.9089769 665.71752518 169.93311188 665.70081268 170.98828125 665.68359375 C172.04661667 665.66281265 173.10495209 665.64203156 174.19535828 665.62062073 C177.56767441 665.55536897 180.94006674 665.49635363 184.3125 665.4375 C186.60222134 665.3942916 188.89193505 665.35067657 191.18164062 665.30664062 C196.78768045 665.19971259 202.39379566 665.09790137 208 665 C201.37532651 656.65370818 194.1498139 654.49394969 184 651.75 C183.03449219 651.481875 182.06898438 651.21375 181.07421875 650.9375 C178.71806526 650.28430893 176.36012366 649.63866687 174 649 C174 648.01 174 647.02 174 646 C202.50515076 652.11068501 202.50515076 652.11068501 210 660 C210.34417969 660.87011719 210.68835938 661.74023438 211.04296875 662.63671875 C212.71738602 665.16431031 212.71738602 665.16431031 215.01953125 665.40283203 C217.59199435 665.4933025 220.11642557 665.43475299 222.6875 665.3125 C224.02651367 665.27866211 224.02651367 665.27866211 225.39257812 665.24414062 C227.59674272 665.18520574 229.79752672 665.10300818 232 665 C230.95012419 662.76409734 229.88590013 660.53708287 228.8125 658.3125 C228.52052734 657.68666016 228.22855469 657.06082031 227.92773438 656.41601562 C224.76798225 649.92663223 220.34559506 645.51885467 214 642 C210.23803856 640.72024766 206.42079588 639.75563899 202.5625 638.8125 C201.55123047 638.55275391 200.53996094 638.29300781 199.49804688 638.02539062 C194.34570792 636.72470232 189.27903178 635.61625828 184 635 C184.33 633.68 184.66 632.36 185 631 C188.9866589 631.91066592 192.96992786 632.83485392 196.95068359 633.77099609 C198.30173124 634.08678779 199.6536102 634.39904667 201.00634766 634.70751953 C212.60890195 637.35732683 222.09191967 639.72175244 229 650 C229.64013641 651.26397227 230.2598347 652.53841828 230.86328125 653.8203125 C233.89609487 661.27338045 233.89609487 661.27338045 239.73046875 666.1875 C242.2733419 666.41704003 244.48400728 666.4073021 247 666 C241.69167154 648.28137246 241.69167154 648.28137246 230.19384766 634.96850586 C223.82043513 632.10158576 217.35854049 630.38584672 210.5625 628.8125 C209.49451172 628.55275391 208.42652344 628.29300781 207.32617188 628.02539062 C200.89406078 626.5047877 194.59528716 625.4528438 188 625 C188 623.68 188 622.36 188 621 C196.97453076 621.91641335 205.62432326 623.73009527 214.375 625.875 C215.39658203 626.11943848 216.41816406 626.36387695 217.47070312 626.61572266 C226.41944961 628.86459934 234.96112055 631.42873389 240.06689453 639.73583984 C241.12880619 641.6941639 242.1056703 643.67585058 243.0625 645.6875 C243.41046631 646.39213379 243.75843262 647.09676758 244.11694336 647.82275391 C246.04118565 651.77429868 247.65092124 655.70719203 249.0625 659.875 C249.8441915 662.17301681 249.8441915 662.17301681 251 664 C254.28390896 665.47209712 256.44798989 666 260 666 C259.67 663.69 259.34 661.38 259 659 C256.36 658.67 253.72 658.34 251 658 C251 657.01 251 656.02 251 655 C253.97 654.505 253.97 654.505 257 654 C253.97118002 642.42646025 249.58690779 631.34885414 239.4375 624.3125 C231.52847216 619.76107832 222.44333159 617.93455715 213.5625 616.25 C212.91998291 616.12222168 212.27746582 615.99444336 211.61547852 615.86279297 C198.47013352 613.56554821 185.01856821 615.42316006 171.8828125 616.86328125 Z M293 622 C292.40832031 622.4125 291.81664062 622.825 291.20703125 623.25 C281.17032474 631.04894193 274.73220235 643.54288521 273 656 C275.64 656.33 278.28 656.66 281 657 C281 657.66 281 658.32 281 659 C284.63 658.01 288.26 657.02 292 656 C291.34 653.03 290.68 650.06 290 647 C290.99 646.67 291.98 646.34 293 646 C293.103125 646.763125 293.20625 647.52625 293.3125 648.3125 C294.0527101 651.20604856 294.70989294 652.16791435 297 654 C299.76617563 655.38308781 302.01018 655.11210196 305.1015625 655.09765625 C306.31328125 655.09443359 307.525 655.09121094 308.7734375 655.08789062 C310.04445313 655.07951172 311.31546875 655.07113281 312.625 655.0625 C314.543125 655.05573242 314.543125 655.05573242 316.5 655.04882812 C319.66671292 655.03701203 322.83333356 655.02053815 326 655 C322.87750324 652.91833549 320.38934933 652.09924722 316.80078125 651.0546875 C314.98803711 650.52294922 314.98803711 650.52294922 313.13867188 649.98046875 C311.87603516 649.61566406 310.61339844 649.25085938 309.3125 648.875 C308.02525311 648.49916858 306.73814202 648.12287173 305.45117188 647.74609375 C302.30208851 646.82613681 299.15169146 645.91097399 296 645 C296 644.01 296 643.02 296 642 C303.77574719 643.32000266 311.23572618 645.43108609 318.76000977 647.77636719 C320.69195036 648.37638218 322.62790556 648.96192466 324.56445312 649.546875 C340.96790698 654.62555474 340.96790698 654.62555474 346.0625 662.5 C350.07228628 668.2833456 352.65757655 671.06177587 359.5625 673 C363.05165024 673.2819078 363.05165024 673.2819078 365.875 671.375 C368.19048116 668.78710929 368.81925172 667.43421737 369 664 C368.67 663.34 368.34 662.68 368 662 C363.38 662 358.76 662 354 662 C354.33 660.35 354.66 658.7 355 657 C358.63 657 362.26 657 366 657 C362.08464017 647.21160042 354.4903692 640.36366222 345 636 C333.59786935 631.27002523 321.81710476 627.5369817 310 624 C310 623.01 310 622.02 310 621 C317.5197322 622.49440767 324.63375249 624.74695606 331.875 627.25 C332.98230469 627.61996094 334.08960938 627.98992188 335.23046875 628.37109375 C350.06404559 633.47830646 361.87380548 640.17406985 370 654 C371.47486901 657.4073406 372.71950038 660.88811147 373.83398438 664.42895508 C375.35848487 669.07326985 377.15480783 671.95441966 381 675 C384.67583445 675.17761741 384.67583445 675.17761741 388 674 C390.05925681 670.91111478 390.2390374 670.29064073 390.125 666.8125 C390.08375 665.554375 390.0425 664.29625 390 663 C385.71 663 381.42 663 377 663 C377 661.68 377 660.36 377 659 C381.29 659 385.58 659 390 659 C384.06537967 641.85186957 384.06537967 641.85186957 372 629 C363.7425335 625.30939018 355.26402385 623.75090352 346.375 622.375 C345.03647372 622.16162774 343.69801387 621.94783841 342.35961914 621.73364258 C316.85451808 616.04387748 316.85451808 616.04387748 293 622 Z M370 623 C372.24073266 624.72364051 374.40690048 626.22998723 376.875 627.625 C386.00494077 634.56375498 389.65003645 646.76544108 394 657 C398.455 656.505 398.455 656.505 403 656 C401.93495645 650.0357561 400.23555031 644.43830715 398.1875 638.75 C397.95144043 638.06486328 397.71538086 637.37972656 397.47216797 636.67382812 C395.78572378 632.12187213 393.94512153 629.03256873 390 626 C386.39651127 624.76098863 386.39651127 624.76098863 382.5 624.1875 C381.2109375 623.95417969 379.921875 623.72085938 378.59375 623.48046875 C375.65851728 623.0880409 372.95100216 622.89217492 370 623 Z M399 630 C401.4225978 637.37720105 404.00007495 644.69254736 406.625 652 C407.03234375 653.14339844 407.4396875 654.28679688 407.859375 655.46484375 C408.44332031 657.09099609 408.44332031 657.09099609 409.0390625 658.75 C409.39178223 659.73484375 409.74450195 660.7196875 410.10791016 661.734375 C410.79939552 663.93235435 410.79939552 663.93235435 412 665 C413.66617115 665.04063832 415.33388095 665.042721 417 665 C416.98714943 661.5753227 416.85174772 658.3266373 416 655 C413.11320156 652.76113268 413.11320156 652.76113268 410 652 C410.66 651.34 411.32 650.68 412 650 C411.64864625 645.56016628 409.67638756 641.70114385 407.75 637.75 C407.46253906 637.11320313 407.17507813 636.47640625 406.87890625 635.8203125 C405.91121093 633.73084652 405.91121093 633.73084652 404 631 C401.38824347 629.97399231 401.38824347 629.97399231 399 630 Z M395 660 C395.66 662.97 396.32 665.94 397 669 C399.35367713 669.6878236 399.35367713 669.6878236 402 670 C402.99 669.34 403.98 668.68 405 668 C405.33338596 664.45812169 405.33338596 664.45812169 405 661 C403.99163938 659.76732652 403.99163938 659.76732652 401.93359375 659.90234375 C399.62239583 659.93489583 397.31119792 659.96744792 395 660 Z M422 660 C422.70621991 663.67234353 424.30714041 666.68689678 426 670 C425.05898438 669.96519531 424.11796875 669.93039062 423.1484375 669.89453125 C421.90320313 669.86746094 420.65796875 669.84039063 419.375 669.8125 C418.14523437 669.77769531 416.91546875 669.74289062 415.6484375 669.70703125 C411.69098391 670.02481393 409.49877427 671.22722534 406 673 C402.87913878 673.11911684 399.91418661 672.87829048 396.8046875 672.6171875 C393.23733637 672.77592269 393.23733637 672.77592269 390 678 C402.87 678 415.74 678 429 678 C430.26249018 666.08151834 430.26249018 666.08151834 426.625 661.6875 C424.23971083 659.81974747 424.23971083 659.81974747 422 660 Z M281.23895264 666.96577454 C279.56899437 669.70766436 279.65815071 671.66584671 279.70703125 674.859375 C279.71452393 675.86452148 279.7220166 676.86966797 279.72973633 677.90527344 C279.75704834 679.1740332 279.78436035 680.44279297 279.8125 681.75 C279.874375 685.7925 279.93625 689.835 280 694 C291.55 694 303.1 694 315 694 C314.67 690.7 314.34 687.4 314 684 C315.61401367 680.91918945 315.61401367 680.91918945 319 679 C323.39432521 678.27362547 327.72949294 678.27889998 332.17578125 678.29296875 C333.45607712 678.27784744 334.73637299 678.26272614 336.0554657 678.24714661 C339.4470607 678.20736615 342.83811867 678.19711088 346.22991943 678.19311523 C349.69576232 678.18377033 353.1612914 678.14634856 356.62695312 678.11132812 C363.41797568 678.04839426 370.20870902 678.01352533 377 678 C375.7260411 675.96166576 374.38938077 673.96147874 373 672 C370.89439669 671.76936488 370.89439669 671.76936488 369.5 673.4375 C369.005 673.953125 368.51 674.46875 368 675 C363.77393714 677.11303143 358.38038959 676.56989069 353.87890625 675.4921875 C350.38246995 674.04296038 348.40169315 672.68445063 346.453125 669.36425781 C343.9005075 665.06518686 341.64280275 661.71170409 336.7114563 660.38369751 C330.89313335 659.60787998 325.0715886 659.73983107 319.21704102 659.95043945 C316.07325219 660.06211804 312.93660239 660.09386494 309.79101562 660.11132812 C307.76814889 660.14376779 305.74534857 660.18072847 303.72265625 660.22265625 C302.79630875 660.23651871 301.86996124 660.25038116 300.9155426 660.2646637 C294.00919642 660.53748031 286.07747589 661.56475807 281.23895264 666.96577454 Z M265 661 C265 663.64 265 666.28 265 669 C263.75020859 669.01030746 262.50041718 669.02061493 261.2127533 669.03123474 C249.42725363 669.12904558 237.64180586 669.23178686 225.85639095 669.33933926 C219.79758928 669.39447318 213.7387827 669.44787779 207.67993164 669.49731445 C201.8314205 669.54509875 195.98296628 669.59744634 190.13452339 669.65294075 C187.90466291 669.67330067 185.67478685 669.69202403 183.44489861 669.70907402 C180.31859598 669.73325927 177.19239963 669.76329404 174.06616211 669.79467773 C173.14690445 669.8004332 172.22764679 669.80618866 171.28053284 669.81211853 C162.44914041 669.44921003 162.44914041 669.44921003 155 673 C155.40528901 675.78237655 155.40528901 675.78237655 157 678 C162.93993753 677.51311987 168.75649264 676.56861673 174.6171875 675.5 C185.9381886 673.82668806 197.25005511 673.78887842 208.66796875 673.68359375 C210.55797235 673.66298501 212.44797174 673.64198763 214.33796692 673.62062073 C219.27797003 673.56580433 224.21801191 673.51621923 229.15808105 673.46777344 C234.21284373 673.41726044 239.26755113 673.36173098 244.32226562 673.30664062 C254.21479636 673.19955471 264.1073754 673.09800271 274 673 C274.20496094 672.30132813 274.40992188 671.60265625 274.62109375 670.8828125 C274.89050781 669.97273437 275.15992188 669.06265625 275.4375 668.125 C275.70433594 667.22007812 275.97117187 666.31515625 276.24609375 665.3828125 C277 663 277 663 278 661 C273.71 661 269.42 661 265 661 Z M180.78442383 678.88720703 C180.0270502 678.96491774 179.26967657 679.04262844 178.48935223 679.12269402 C165.76116285 680.36240742 165.76116285 680.36240742 155 686 C159.20308839 690.57665611 162.83905463 694.42339622 169.25831604 694.96203613 C171.21195373 694.98494274 173.16642656 694.96458743 175.11938477 694.90820312 C176.73069527 694.90995544 176.73069527 694.90995544 178.3745575 694.91174316 C181.89819101 694.9062034 185.41836982 694.84414017 188.94140625 694.78125 C191.3947515 694.76631701 193.84812071 694.75493499 196.30149841 694.74694824 C202.73827743 694.71649861 209.1735972 694.63799385 215.60980225 694.54931641 C222.18563093 694.46727213 228.76169693 694.43089688 235.33789062 694.390625 C248.22589925 694.30499558 261.11282797 694.16857282 274 694 C274 688.72 274 683.44 274 678 C263.50629077 677.9544863 253.01264905 677.91793457 242.51886272 677.89637566 C237.6441291 677.88601902 232.76946755 677.87201181 227.89477539 677.84912109 C223.17443464 677.82709851 218.45416242 677.81537067 213.73377419 677.81024551 C211.94921607 677.80660172 210.16466092 677.79948989 208.38013268 677.78853989 C199.12888544 677.73412591 189.99295287 677.93826376 180.78442383 678.88720703 Z M557 678 C555.95493519 679.16623175 554.93978394 680.35930265 553.9375 681.5625 C550.72900185 685.30352896 547.28638481 688.50147452 543.50390625 691.65234375 C542.75947266 692.31943359 542.75947266 692.31943359 542 693 C542 693.33 542 693.66 542 694 C547.61 694 553.22 694 559 694 C558.67 688.72 558.34 683.44 558 678 C557.67 678 557.34 678 557 678 Z M93 681 C91.68 683.97 90.36 686.94 89 690 C86.25 691.5625 86.25 691.5625 84 692 C87.62429446 694.41619631 89.27138362 694.24298934 93.58276367 694.22705078 C94.24644455 694.22734283 94.91012543 694.22763489 95.59391785 694.22793579 C97.78540161 694.22654357 99.97654445 694.21098779 102.16796875 694.1953125 C103.68825596 694.19158198 105.20854558 694.18873519 106.72883606 694.18673706 C110.72869514 694.17910366 114.72840879 694.15945774 118.72821045 694.1373291 C122.81032341 694.11686434 126.89245989 694.107734 130.97460938 694.09765625 C138.98313963 694.07621152 146.99155172 694.04207917 155 694 C154.35546875 693.07960938 153.7109375 692.15921875 153.046875 691.2109375 C150.97061123 687.95389777 150.36159771 685.79677598 150 682 C150.66 681.67 151.32 681.34 152 681 C132.53 681 113.06 681 93 681 Z " fill="#000000" transform="translate(387,248)"/>
<path d="M0 0 C1.14145981 0.00141495 2.28291962 0.0028299 3.45896912 0.00428772 C7.07553824 0.00984874 10.69204359 0.02239394 14.30859375 0.03515625 C16.77278556 0.04017629 19.23697835 0.04473831 21.70117188 0.04882812 C27.71616729 0.05980538 33.73112596 0.07650431 39.74609375 0.09765625 C39.74609375 0.75765625 39.74609375 1.41765625 39.74609375 2.09765625 C35.06498042 4.8435811 31.17749529 5.54967199 25.84765625 5.57421875 C25.0950351 5.58979828 24.34241394 5.60537781 23.56698608 5.62142944 C21.16836726 5.66865305 18.77002642 5.69652303 16.37109375 5.72265625 C13.23817483 5.7717798 10.10541294 5.82821184 6.97265625 5.88671875 C5.81577805 5.90773148 5.81577805 5.90773148 4.63552856 5.9291687 C-19.57312766 6.41808145 -41.78987127 9.71415273 -59.79492188 27.51171875 C-71.2814804 39.99777701 -76.61350112 55.79400691 -76.484375 72.5234375 C-76.48427933 73.52240051 -76.48418365 74.52136353 -76.48408508 75.55059814 C-76.48034761 78.8372368 -76.46129208 82.12357858 -76.44140625 85.41015625 C-76.43450601 87.74405812 -76.4280028 90.0779612 -76.421875 92.41186523 C-76.36347045 108.16518249 -76.09615042 123.91083747 -75.75390625 139.66015625 C-75.36456177 157.80658384 -75.09161106 175.95155419 -75.02172852 194.10202026 C-75.00998294 196.69411135 -74.99301815 199.28618482 -74.97045898 201.87820435 C-74.94043955 205.50225357 -74.93054474 209.12584029 -74.92578125 212.75 C-74.91347473 213.80826996 -74.90116821 214.86653992 -74.88848877 215.95687866 C-74.91097767 223.6622339 -76.26507179 230.66428624 -78.25390625 238.09765625 C-78.58390625 238.09765625 -78.91390625 238.09765625 -79.25390625 238.09765625 C-80.12048935 234.32463314 -80.41218253 230.77703632 -80.48805237 226.9094696 C-80.51466949 225.66359573 -80.54128662 224.41772186 -80.56871033 223.13409424 C-80.59350012 221.7608658 -80.61820112 220.38763576 -80.64282227 219.0144043 C-80.67214439 217.5618056 -80.70185823 216.10921477 -80.73193359 214.65663147 C-80.81241304 210.7139031 -80.88729121 206.77108615 -80.96108747 202.82822776 C-81.03945114 198.68765571 -81.12268263 194.54718132 -81.20530701 190.4066925 C-81.34358435 183.44200173 -81.47846921 176.47725196 -81.61108398 169.51245117 C-81.780484 160.61668354 -81.95547127 151.72103521 -82.13226414 142.8254118 C-82.28499084 135.13800439 -82.43502107 127.45054465 -82.58468127 119.76307702 C-82.63247804 117.31401238 -82.68065094 114.86495536 -82.72888374 112.41589928 C-82.8051303 108.53600439 -82.87967376 104.65608 -82.9529953 100.77612877 C-82.97987957 99.36539711 -83.00726519 97.95467488 -83.03523827 96.54396439 C-83.18108715 89.16892439 -83.28171009 81.79495068 -83.30015564 74.41853333 C-83.30338805 73.12729459 -83.30662046 71.83605585 -83.30995083 70.50568867 C-83.01397797 52.50778213 -75.45695859 35.26572873 -63.3125 22.06640625 C-45.58327384 5.11094138 -23.80533884 -0.11261947 0 0 Z " fill="#000000" transform="translate(246.25390625,584.90234375)"/>
<path d="M0 0 C1.24655617 0.01561981 1.24655617 0.01561981 2.51829529 0.03155518 C3.86674278 0.05799103 3.86674278 0.05799103 5.24243164 0.08496094 C6.16472061 0.10145691 7.08700958 0.11795288 8.0372467 0.13494873 C9.99005904 0.17247919 11.94281529 0.21302936 13.89550781 0.25634766 C16.88673381 0.31900385 19.87779263 0.36047758 22.86938477 0.40136719 C24.76459451 0.44042158 26.65977863 0.48074403 28.55493164 0.52246094 C29.45187241 0.53198792 30.34881317 0.54151489 31.27293396 0.55133057 C32.10712357 0.57435242 32.94131317 0.59737427 33.80078125 0.62109375 C34.90092812 0.64227264 34.90092812 0.64227264 36.02330017 0.66387939 C38.53919541 1.18921292 39.43730838 2.02531276 40.96508789 4.06933594 C41.26330259 6.76264604 41.3856045 9.22009388 41.36352539 11.91308594 C41.36639557 12.67858765 41.36926575 13.44408936 41.3722229 14.23278809 C41.37426289 15.85002381 41.36873752 17.46728424 41.35620117 19.08447266 C41.34014547 21.56045685 41.35605086 24.03480878 41.37524414 26.51074219 C41.3732617 28.08236037 41.36941799 29.65397755 41.36352539 31.22558594 C41.37263443 32.33661682 41.37263443 32.33661682 41.38192749 33.47009277 C41.34188834 36.39503984 41.29709261 38.54874023 39.70019531 41.05273438 C37.52806049 42.32539083 36.30718571 42.35539947 33.80493164 42.17871094 C33.01151367 42.1284375 32.2180957 42.07816406 31.40063477 42.02636719 C30.5762793 41.95804688 29.75192383 41.88972656 28.90258789 41.81933594 C28.07436523 41.76648438 27.24614258 41.71363281 26.39282227 41.65917969 C20.29078858 41.23218628 20.29078858 41.23218628 17.96508789 40.06933594 C17.96508789 38.74933594 17.96508789 37.42933594 17.96508789 36.06933594 C20.27813393 34.91281292 21.64466707 34.93559301 24.21508789 34.94433594 C24.96274414 34.94175781 25.71040039 34.93917969 26.48071289 34.93652344 C29.32986655 35.08883668 32.15068702 35.60026913 34.96508789 36.06933594 C34.96508789 26.49933594 34.96508789 16.92933594 34.96508789 7.06933594 C32.02602539 7.10027344 32.02602539 7.10027344 29.02758789 7.13183594 C17.66586915 7.18625538 6.31255516 6.57576296 -5.03491211 6.06933594 C-5.36491211 4.41933594 -5.69491211 2.76933594 -6.03491211 1.06933594 C-3.74702302 -0.07460861 -2.53803358 -0.03788813 0 0 Z " fill="#000000" transform="translate(592.034912109375,733.9306640625)"/>
<path d="M0 0 C1.81103516 0.15332031 1.81103516 0.15332031 4 1 C5.55224609 3.38574219 5.55224609 3.38574219 7.0234375 6.546875 C7.57 7.70316406 8.1165625 8.85945313 8.6796875 10.05078125 C9.24511719 11.28370493 9.81022027 12.51677845 10.375 13.75 C10.92671875 14.92433594 11.4784375 16.09867187 12.046875 17.30859375 C13.1568114 19.67697916 14.25675555 22.050073 15.34667969 24.42773438 C16.46868412 26.85200622 17.60748436 29.25452854 18.78613281 31.65039062 C19.34397461 32.80216797 19.90181641 33.95394531 20.4765625 35.140625 C20.98525879 36.17219727 21.49395508 37.20376953 22.01806641 38.26660156 C23.04240153 41.1180327 23.11230702 42.23698641 22 45 C21.2575 44.979375 20.515 44.95875 19.75 44.9375 C16.5285936 46.18213429 16.26944464 46.74264636 14.8125 49.75 C12.47055229 55.61909162 11.73316574 61.75844433 11 68 C9.68 67.67 8.36 67.34 7 67 C6.35570096 55.58158921 7.7395732 47.92512049 15 39 C14.55084229 38.0212793 14.10168457 37.04255859 13.63891602 36.03417969 C11.97123595 32.39789714 10.3080655 28.75956698 8.64624023 25.12060547 C7.92676399 23.54680183 7.20607075 21.97355394 6.48413086 20.40087891 C5.44583784 18.13850058 4.41195723 15.87415086 3.37890625 13.609375 C2.89448814 12.55759064 2.89448814 12.55759064 2.40028381 11.48455811 C-0.39943964 5.32643431 -0.39943964 5.32643431 -1 2 C-0.67 1.34 -0.34 0.68 0 0 Z " fill="#000000" transform="translate(383,415)"/>
<path d="M0 0 C1.9375 0.3125 1.9375 0.3125 4 1 C4.33 1.99 4.66 2.98 5 4 C6.32 3.67 7.64 3.34 9 3 C12.16763375 7.22351167 12.65645772 10.88140397 12 16 C11.02272462 20.70933427 9.89274547 24.76167563 7.0625 28.6875 C5 30 5 30 3.01171875 29.9140625 C1 29 1 29 -0.265625 26.69921875 C-2.61458314 19.5125254 -4.22046822 12.57569913 -3 5 C-1.47265625 2.15234375 -1.47265625 2.15234375 0 0 Z " fill="#000000" transform="translate(925,527)"/>
<path d="M0 0 C21.02780269 -0.13069489 41.98806036 0.13514074 63 1 C63 2.32 63 3.64 63 5 C55.09840359 5.02316198 47.19682135 5.04093479 39.29519939 5.05181217 C35.62623076 5.05703255 31.95728535 5.06411489 28.28833008 5.07543945 C24.74812911 5.08629832 21.20795048 5.09228322 17.66773415 5.09487724 C15.65858345 5.09762633 13.64944175 5.1054336 11.64030457 5.11329651 C10.41926529 5.11337204 9.19822601 5.11344757 7.94018555 5.11352539 C6.86318893 5.115746 5.78619232 5.11796661 4.67655945 5.12025452 C2 5 2 5 -1 4 C-0.67 2.68 -0.34 1.36 0 0 Z " fill="#000000" transform="translate(575,720)"/>
<path d="M0 0 C2.52685216 2.13203151 2.91636695 3.72520568 3.875 6.875 C4.03192798 10.79819961 3.14773936 12.74136098 1 16 C-1.55472389 18.17624628 -3.76908992 18.12931655 -7 17.9375 C-10.11587241 17.43175205 -10.98745825 17.01066049 -13.5 14.875 C-15.40479372 11.22414536 -15.5814173 9.06992108 -15 5 C-10.79620762 -1.44581499 -7.14820808 -1.6788452 0 0 Z " fill="#000000" transform="translate(508,438)"/>
<path d="M0 0 C1.32 0.33 2.64 0.66 4 1 C4 26.74 4 52.48 4 79 C3.34 79 2.68 79 2 79 C1.05957879 74.96436431 0.80591766 71.11096812 0.68359375 66.97265625 C0.66276733 66.28294235 0.64194092 65.59322845 0.6204834 64.88261414 C0.55420351 62.60935606 0.49533621 60.33598761 0.4375 58.0625 C0.41632111 57.28386597 0.39514221 56.50523193 0.37332153 55.70300293 C-0.12567134 37.13659501 -0.10103297 18.57141392 0 0 Z " fill="#000000" transform="translate(172,721)"/>
<path d="M0 0 C45.60255972 -0.20638953 45.60255972 -0.20638953 64 1 C63.67 2.32 63.34 3.64 63 5 C41.9754959 5.14959965 21.01019962 4.75538679 0 4 C0 2.68 0 1.36 0 0 Z " fill="#000000" transform="translate(574,714)"/>
<path d="M0 0 C6.4412349 -0.02540728 12.88245681 -0.04289098 19.32373047 -0.05493164 C21.51383955 -0.0599526 23.70394529 -0.06677066 25.89404297 -0.07543945 C29.04655788 -0.08760304 32.19902836 -0.09325077 35.3515625 -0.09765625 C36.8144017 -0.10539818 36.8144017 -0.10539818 38.30679321 -0.11329651 C42.98880819 -0.11368069 47.39501684 0.02573929 52 1 C52 2.32 52 3.64 52 5 C47.32674529 5.02519797 42.65353228 5.04308849 37.98022461 5.05493164 C36.39883737 5.05988196 34.81745451 5.06664392 33.23608398 5.07543945 C22.11663502 5.13562113 11.09242761 4.78342092 0 4 C0 2.68 0 1.36 0 0 Z " fill="#000000" transform="translate(586,708)"/>
<path d="M0 0 C3.9166043 -0.0580966 7.83309763 -0.09362893 11.75 -0.125 C12.86117187 -0.14175781 13.97234375 -0.15851562 15.1171875 -0.17578125 C16.72207031 -0.18544922 16.72207031 -0.18544922 18.359375 -0.1953125 C19.34389648 -0.20578613 20.32841797 -0.21625977 21.34277344 -0.22705078 C24.0936186 0.00799938 25.69813448 0.5020127 28 2 C29.35439668 4.70879335 29.06501451 7.00933268 29 10 C27.68 10.33 26.36 10.66 25 11 C24.87625 10.195625 24.7525 9.39125 24.625 8.5625 C24.41875 7.716875 24.2125 6.87125 24 6 C21.53879159 4.76939579 19.74223134 4.7942277 16.9921875 4.68359375 C16.00605469 4.64169922 15.01992188 4.59980469 14.00390625 4.55664062 C12.45509766 4.49766602 12.45509766 4.49766602 10.875 4.4375 C9.31458984 4.37272461 9.31458984 4.37272461 7.72265625 4.30664062 C5.14857472 4.2003712 2.57439492 4.09833417 0 4 C0 2.68 0 1.36 0 0 Z " fill="#000000" transform="translate(505,515)"/>
<path d="M0 0 C2.83398763 0.09606738 5.02345099 0.27250432 7.6875 1.125 C7.3575 2.445 7.0275 3.765 6.6875 5.125 C3.3875 5.125 0.0875 5.125 -3.3125 5.125 C-3.6425 3.805 -3.9725 2.485 -4.3125 1.125 C-3.3125 0.125 -3.3125 0.125 0 0 Z " fill="#000000" transform="translate(574.3125,706.875)"/>
<path d="M0 0 C2.97 0 5.94 0 9 0 C9.33 1.65 9.66 3.3 10 5 C6.7 5 3.4 5 0 5 C0 3.35 0 1.7 0 0 Z " fill="#000000" transform="translate(486,829)"/>
<path d="M0 0 C0.99 0.495 0.99 0.495 2 1 C3.29930238 5.28769786 3.07516774 9.56510345 3 14 C2.34 14 1.68 14 1 14 C-0.04976964 10.85069107 -0.10131595 8.61185544 -0.0625 5.3125 C-0.05347656 4.31863281 -0.04445312 3.32476563 -0.03515625 2.30078125 C-0.02355469 1.54152344 -0.01195312 0.78226563 0 0 Z " fill="#000000" transform="translate(183,917)"/>
<path d="M0 0 C5.75 -0.125 5.75 -0.125 8 1 C7.67 1.99 7.34 2.98 7 4 C4.03 3.505 4.03 3.505 1 3 C0.67 2.01 0.34 1.02 0 0 Z " fill="#000000" transform="translate(649,805)"/>
<path d="M0 0 C0.66 0 1.32 0 2 0 C1.67 1.65 1.34 3.3 1 5 C0.67 5 0.34 5 0 5 C0 3.35 0 1.7 0 0 Z " fill="#000000" transform="translate(213,666)"/>
<path d="M0 0 C0.66 0 1.32 0 2 0 C1.67 0.99 1.34 1.98 1 3 C0.67 2.01 0.34 1.02 0 0 Z " fill="#000000" transform="translate(624,790)"/>
</svg>
